<svg width="1491" height="1312" xmlns="http://www.w3.org/2000/svg" xmlns:xlink="http://www.w3.org/1999/xlink" overflow="hidden"><defs><clipPath id="clip0"><rect x="1988" y="542" width="1491" height="1312"/></clipPath></defs><g clip-path="url(#clip0)" transform="translate(-1988 -542)"><path d="M3479 542 3479 918.764 2469.43 1084.71 2912.8 1852 2483.39 1852 2012.94 1037.83C1982.4 984.964 1979.75 920.551 2005.87 865.364 2031.99 810.176 2083.53 771.388 2143.75 761.462Z" fill="#FFCE1E" fill-rule="evenodd"/><path d="M2800.26 1788.95C2785.25 1788.95 2773 1776.75 2773 1761.7L2773 836.246C2773 821.247 2785.2 809 2800.26 809L3313.74 809C3328.75 809 3341 821.193 3341 836.246L3341 1761.75C3341 1776.75 3328.8 1789 3313.74 1789L2800.26 1789Z" fill="#FFFFFF" fill-rule="evenodd"/><path d="M3313.46 810.696C3327.2 810.696 3338.31 821.868 3338.31 835.577L3338.31 1761.42C3338.31 1775.19 3327.15 1786.3 3313.46 1786.3L2800.54 1786.3C2786.8 1786.3 2775.69 1775.13 2775.69 1761.42L2775.69 835.577C2775.69 821.814 2786.85 810.696 2800.54 810.696L3313.46 810.696 3313.46 810.696ZM3313.46 806 2800.54 806C2784.26 806 2771 819.277 2771 835.577L2771 1761.42C2771 1777.72 2784.26 1791 2800.54 1791L3313.46 1791C3329.74 1791 3343 1777.72 3343 1761.42L3343 835.577C3343 819.277 3329.74 806 3313.46 806L3313.46 806Z" fill-rule="evenodd"/><path d="M3313.46 810.696C3327.2 810.696 3338.31 821.868 3338.31 835.577L3338.31 1761.42C3338.31 1775.19 3327.15 1786.3 3313.46 1786.3L2800.54 1786.3C2786.8 1786.3 2775.69 1775.13 2775.69 1761.42L2775.69 835.577C2775.69 821.814 2786.85 810.696 2800.54 810.696L3313.46 810.696 3313.46 810.696ZM3313.46 806 2800.54 806C2784.26 806 2771 819.277 2771 835.577L2771 1761.42C2771 1777.72 2784.26 1791 2800.54 1791L3313.46 1791C3329.74 1791 3343 1777.72 3343 1761.42L3343 835.577C3343 819.277 3329.74 806 3313.46 806L3313.46 806Z" fill-rule="evenodd"/><path d="M2828.27 1753C2813.26 1753 2801 1740.8 2801 1725.74L2801 897.263C2801 882.255 2813.2 870 2828.27 870L2972.17 870C2973.41 870 2974.44 870.972 2974.49 872.214 2975.14 885.278 2985.94 895.536 2999.06 895.536L3125.2 895.536C3138.32 895.536 3149.12 885.278 3149.77 872.214 3149.82 870.972 3150.85 870 3152.09 870L3285.73 870C3300.74 870 3313 882.201 3313 897.263L3313 1725.74C3313 1740.75 3300.8 1753 3285.73 1753L2828.27 1753Z" fill="#FFFFFF" fill-rule="evenodd"/><path d="M3285.45 872.693C3299.2 872.693 3310.31 883.86 3310.31 897.563L3310.31 1725.44C3310.31 1739.19 3299.15 1750.31 3285.45 1750.31L2828.55 1750.31C2814.8 1750.31 2803.69 1739.14 2803.69 1725.44L2803.69 897.563C2803.69 883.807 2814.86 872.693 2828.55 872.693L2972.28 872.693C2972.98 886.881 2984.73 898.21 2999.13 898.21L3125.11 898.21C3139.51 898.21 3151.27 886.935 3151.97 872.693L3285.45 872.693 3285.45 872.693ZM3285.45 868 3151.97 868C3149.49 868 3147.44 869.942 3147.33 872.424 3146.74 884.238 3136.98 893.517 3125.11 893.517L2999.13 893.517C2987.27 893.517 2977.51 884.238 2976.91 872.424 2976.81 869.942 2974.76 868 2972.28 868L2828.55 868C2812.27 868 2799 881.271 2799 897.563L2799 1725.44C2799 1741.73 2812.27 1755 2828.55 1755L3285.45 1755C3301.73 1755 3315 1741.73 3315 1725.44L3315 897.563C3315 881.271 3301.73 868 3285.45 868L3285.45 868Z" fill-rule="evenodd"/><path d="M3190.88 1670C3190.51 1670 3190.13 1669.89 3189.8 1669.73L3186.3 1667.94C3185.49 1667.51 3185 1666.69 3185 1665.77L3186.35 1609.19C3185.65 1603.77 3185.11 1583.29 3197.41 1552.12 3210.21 1519.82 3242.92 1496.41 3244.32 1495.43 3244.75 1495.16 3245.19 1495 3245.67 1495 3246.16 1495 3246.64 1495.16 3247.02 1495.43 3247.83 1496.03 3248.21 1497.06 3247.88 1497.98 3247.78 1498.41 3235.09 1542.53 3226.35 1564.48 3215.44 1591.74 3199.9 1607.57 3196.28 1610.98L3193.15 1667.72C3193.1 1668.54 3192.66 1669.24 3191.96 1669.62 3191.69 1669.89 3191.26 1670 3190.88 1670Z" fill="#FFFFFF" fill-rule="evenodd"/><path d="M3245.34 1497.7C3245.34 1497.7 3232.65 1541.71 3223.75 1563.74 3211.61 1593.81 3193.44 1609.85 3193.44 1609.85L3190.24 1667.36 3186.72 1665.57 3188.08 1609.2C3188.08 1609.2 3184.98 1588.3 3199.03 1553.15 3211.83 1521.19 3245.34 1497.7 3245.34 1497.7L3245.34 1497.7ZM3245.34 1493C3244.25 1493 3243.33 1493.32 3242.57 1493.86 3240.56 1495.27 3207.7 1518.81 3194.69 1551.37 3182.92 1580.85 3182.44 1601.7 3183.47 1609.04 3183.36 1609.04 3182 1665.41 3182 1665.41 3181.95 1667.19 3182.92 1668.87 3184.55 1669.68L3188.08 1671.46C3188.73 1671.78 3189.49 1672 3190.24 1672 3191.06 1672 3191.87 1671.78 3192.58 1671.41 3193.93 1670.6 3194.85 1669.19 3194.91 1667.63L3198.05 1612.01C3202.77 1607.42 3217.57 1591.6 3228.09 1565.52 3236.66 1544.3 3248.48 1503.75 3249.73 1499.37 3249.94 1498.89 3250 1498.35 3250 1497.75 3250.05 1495.11 3247.94 1493 3245.34 1493 3245.34 1493 3245.34 1493 3245.34 1493Z" fill-rule="evenodd"/><path d="M3171.72 1734C3171.13 1734 3170.59 1733.78 3170.17 1733.41 3169.69 1732.98 3169.42 1732.33 3169.42 1731.68L3169.74 1546.92C3168.4 1541.31 3148.4 1457.18 3151.28 1369.01 3154.76 1263.9 3203.81 1165.32 3204.29 1164.29 3204.67 1163.49 3205.47 1163 3206.38 1163 3207.34 1163.05 3208.15 1163.59 3208.52 1164.4 3209.32 1166.34 3228.47 1212.88 3231.84 1334.44 3235.1 1451.14 3187.18 1538.72 3182.74 1546.6L3182.74 1730.71C3182.74 1731.9 3181.83 1732.92 3180.65 1733.03 3180.6 1733.08 3171.83 1734 3171.72 1734Z" fill="#FFFFFF" fill-rule="evenodd"/><path d="M3206.61 1164.69C3206.61 1164.69 3226.68 1211.43 3230.16 1333.98 3233.64 1456.58 3180.23 1545.57 3180.23 1545.57L3180.23 1730.44 3171.47 1731.36 3171.8 1546.16C3171.8 1546.16 3149.98 1460.09 3153.03 1368.51 3156.56 1262.64 3206.61 1164.69 3206.61 1164.69L3206.61 1164.69ZM3206.61 1160C3204.81 1160 3203.23 1160.97 3202.42 1162.54 3201.93 1163.51 3151.83 1262.64 3148.3 1368.35 3145.36 1455.66 3165.16 1538.98 3167.06 1546.75L3166.74 1731.36C3166.74 1732.71 3167.28 1733.95 3168.31 1734.81 3169.18 1735.57 3170.33 1736 3171.47 1736 3171.63 1736 3171.8 1736 3171.96 1736L3180.72 1735.08C3183.11 1734.81 3184.9 1732.82 3184.9 1730.44L3184.9 1546.81C3191.1 1535.91 3238.1 1448.92 3234.84 1333.87 3231.41 1211.8 3211.77 1164.8 3210.96 1162.86 3210.25 1161.19 3208.62 1160.11 3206.77 1160 3206.61 1160 3206.61 1160 3206.61 1160Z" fill-rule="evenodd"/><path d="M3170.35 1762C3169.75 1762 3169.21 1761.78 3168.78 1761.41 3168.29 1760.97 3168.02 1760.38 3168.02 1759.79L3161.73 1595.46C3160.16 1591.31 3145.25 1551.64 3130.61 1507.07 3115.16 1459.96 3108.27 1359.8 3108 1355.54 3107.95 1354.4 3108.65 1353.43 3109.74 1353.11 3109.95 1353.05 3110.17 1353 3110.33 1353 3111.2 1353 3112.01 1353.49 3112.45 1354.3 3120.53 1364.49 3161.84 1419.86 3177.61 1495.74 3184.83 1530.44 3173.44 1592.12 3172.9 1594.76L3178.32 1759.25C3178.37 1760.49 3177.4 1761.57 3176.1 1761.68 3176.1 1761.68 3170.35 1762 3170.35 1762Z" fill="#FFFFFF" fill-rule="evenodd"/><path d="M3110.63 1354.65C3110.74 1354.86 3158.13 1413.52 3175 1495.62 3182.15 1530.29 3170.33 1593.81 3170.33 1593.81L3175.65 1758.98 3170.06 1759.3 3163.77 1594.46C3163.77 1594.46 3148.3 1553.19 3132.88 1505.72 3117.56 1458.35 3110.69 1354.97 3110.63 1354.65L3110.63 1354.65ZM3110.63 1350C3110.2 1350 3109.83 1350.05 3109.4 1350.16 3107.25 1350.76 3105.85 1352.75 3106.01 1354.97 3106.28 1359.24 3113.16 1459.75 3128.53 1507.17 3142.71 1550.76 3157.11 1589.65 3159.26 1595.38L3165.49 1759.46C3165.55 1760.71 3166.08 1761.89 3167 1762.76 3167.86 1763.57 3168.99 1764 3170.11 1764 3170.38 1764 3175.97 1763.68 3175.97 1763.68 3178.5 1763.51 3180.43 1761.41 3180.38 1758.87L3175.06 1594.24C3176.24 1587.71 3186.55 1528.67 3179.62 1494.75 3163.88 1418.32 3122.67 1362.48 3114.56 1352.05 3114.72 1352.27 3114.82 1352.54 3114.88 1352.59 3113.96 1350.97 3112.35 1350 3110.63 1350L3110.63 1350Z" fill-rule="evenodd"/><path d="M3189.22 1737C3189.06 1737 3188.85 1737 3188.68 1736.95L3181.77 1735.22C3180.7 1734.95 3180 1733.97 3180 1732.89L3183.48 1587.09C3183.43 1586.66 3178.39 1520.78 3192.49 1461.28 3206.59 1401.73 3278.64 1286.94 3281.7 1282.08 3282.13 1281.38 3282.88 1281 3283.68 1281 3284 1281 3284.27 1281.05 3284.59 1281.16 3285.66 1281.59 3286.2 1282.73 3285.93 1283.86 3285.66 1285.05 3257.3 1405.02 3238.38 1457.34 3221.17 1504.78 3197.58 1583.09 3195.98 1588.55L3191.63 1734.73C3191.63 1735.43 3191.26 1736.08 3190.72 1736.51 3190.19 1736.84 3189.7 1737 3189.22 1737Z" fill="#FFFFFF" fill-rule="evenodd"/><path d="M3284.28 1283.69C3284.28 1283.69 3255.56 1403.9 3236.18 1456.61 3217.99 1506.14 3193.07 1588.04 3193.07 1588.04L3188.67 1734.31 3181.67 1732.58 3185.2 1587.02C3185.2 1587.02 3179.88 1521.63 3194.27 1461.9 3208.6 1402.12 3284.28 1283.69 3284.28 1283.69L3284.28 1283.69ZM3284.28 1279C3284.11 1279 3283.95 1279 3283.84 1279 3283.08 1279.05 3282.32 1279.32 3281.73 1279.76 3281.29 1280.03 3280.91 1280.4 3280.59 1280.78 3280.48 1280.94 3280.37 1281.05 3280.31 1281.21 3276.68 1286.93 3204.04 1401.15 3189.71 1460.77 3175.81 1518.66 3180.2 1582.54 3180.53 1587.12L3177 1732.47C3176.95 1734.68 3178.41 1736.57 3180.58 1737.11L3187.59 1738.84C3187.97 1738.95 3188.35 1739 3188.73 1739 3189.76 1739 3190.74 1738.68 3191.55 1738.03 3192.69 1737.17 3193.34 1735.87 3193.4 1734.47L3197.79 1588.8C3200.07 1581.3 3223.53 1504.79 3240.63 1458.18 3259.36 1407.19 3287.05 1292.27 3288.78 1285.1 3288.95 1284.67 3289 1284.18 3289 1283.69 3289 1281.16 3286.94 1279.05 3284.39 1279 3284.28 1279 3284.28 1279 3284.28 1279Z" fill-rule="evenodd"/><path d="M3158.59 1668C3158.16 1668 3157.72 1667.89 3157.4 1667.68 3156.75 1667.3 3156.31 1666.6 3156.26 1665.84L3151.63 1598.89C3145 1593.71 3124.07 1573.38 3116.02 1548.94 3106.02 1518.62 3088.24 1451.56 3088.08 1450.91 3087.81 1449.89 3088.24 1448.86 3089.17 1448.32 3089.55 1448.11 3089.93 1448 3090.36 1448 3090.96 1448 3091.56 1448.22 3091.99 1448.65 3093.52 1450.1 3130.11 1484.9 3145.82 1518.94 3163.87 1557.95 3160.5 1597.11 3160.33 1598.78L3165.99 1663.41C3166.1 1664.39 3165.5 1665.36 3164.57 1665.73L3159.57 1667.89C3159.25 1667.95 3158.92 1668 3158.59 1668Z" fill="#FFFFFF" fill-rule="evenodd"/><path d="M3090.68 1449.65C3090.68 1449.65 3127.88 1485.24 3143.49 1519.26 3161.31 1558.2 3157.7 1598.01 3157.7 1598.01L3163.3 1663.09 3158.35 1665.25 3153.72 1597.36C3153.45 1597.3 3127.66 1575.97 3118.4 1547.62 3108.33 1517.05 3090.68 1449.65 3090.68 1449.65L3090.68 1449.65ZM3090.68 1445C3089.87 1445 3089.06 1445.22 3088.31 1445.65 3086.53 1446.73 3085.61 1448.83 3086.15 1450.83 3086.31 1451.48 3103.92 1518.72 3113.88 1549.13 3121.52 1572.46 3140.58 1592.88 3149.14 1599.63L3153.66 1665.63C3153.77 1667.14 3154.58 1668.49 3155.93 1669.3 3156.68 1669.73 3157.49 1670 3158.35 1670 3158.99 1670 3159.64 1669.89 3160.23 1669.62L3165.19 1667.46C3167.02 1666.65 3168.15 1664.76 3167.98 1662.76L3162.44 1598.06C3162.82 1593.36 3165.13 1555.29 3147.8 1517.37 3132.02 1482.91 3095.52 1447.75 3093.96 1446.3 3092.99 1445.43 3091.86 1445 3090.68 1445L3090.68 1445Z" fill-rule="evenodd"/><path d="M3155.2 1847C3140.16 1847 3127.93 1832.05 3127.93 1813.67L3117 1658.77C3117 1652.21 3122.25 1647 3128.69 1647L3217.31 1647C3223.75 1647 3229 1652.21 3229 1658.61L3218.4 1813.83C3218.4 1832.05 3206.17 1847 3191.13 1847L3155.2 1847Z" fill="#FFFFFF" fill-rule="evenodd"/><path d="M3216.9 1648.66C3222.11 1648.66 3226.28 1652.82 3226.28 1658.02L3215.66 1814.12C3215.66 1831.38 3204.49 1845.35 3190.66 1845.35L3154.66 1845.35C3140.84 1845.35 3129.67 1831.38 3129.67 1814.12L3118.72 1658.02C3118.72 1652.82 3122.95 1648.66 3128.1 1648.66L3216.9 1648.66 3216.9 1648.66ZM3216.9 1644 3128.1 1644C3120.34 1644 3114 1650.28 3114 1658.02 3114 1658.13 3114 1658.23 3114 1658.34L3124.95 1814.28C3125.01 1833.98 3138.29 1850 3154.66 1850L3190.66 1850C3206.98 1850 3220.27 1833.98 3220.37 1814.28L3231 1658.34C3231 1658.23 3231 1658.13 3231 1658.02 3230.95 1650.28 3224.66 1644 3216.9 1644L3216.9 1644Z" fill-rule="evenodd"/><path d="M2862.16 1619 2849.05 1619C2848.4 1619 2847.91 1619.38 2848.02 1619.92L2891.48 1846.08C2891.59 1846.57 2892.19 1847 2892.84 1847L2905.95 1847C2906.6 1847 2907.09 1846.62 2906.98 1846.08L2863.52 1619.92C2863.41 1619.38 2862.81 1619 2862.16 1619Z" fill="#FFFFFF" fill-rule="evenodd"/><path d="M2706.06 1623 2718.97 1623C2719.61 1623 2720.09 1623.38 2719.99 1623.92L2676.28 1846.08C2676.17 1846.57 2675.58 1847 2674.94 1847L2662.03 1847C2661.39 1847 2660.91 1846.62 2661.02 1846.08L2704.72 1623.92C2704.83 1623.38 2705.42 1623 2706.06 1623Z" fill="#FFFFFF" fill-rule="evenodd"/><path d="M2995.91 1619 2983.02 1619C2982.38 1619 2981.95 1619.38 2982 1619.87L3024.74 1846.08C3024.85 1846.57 3025.44 1847 3026.08 1847L3038.97 1847C3039.61 1847 3040.09 1846.62 3039.99 1846.08L2997.25 1619.87C2997.14 1619.38 2996.55 1619 2995.91 1619Z" fill="#FFFFFF" fill-rule="evenodd"/><path d="M2839.82 1623 2852.95 1623C2853.6 1623 2854.09 1623.38 2853.99 1623.92L2809.54 1846.08C2809.43 1846.57 2808.83 1847 2808.18 1847L2795.05 1847C2794.4 1847 2793.91 1846.62 2794.02 1846.08L2838.46 1623.92C2838.57 1623.43 2839.17 1623 2839.82 1623Z" fill="#FFFFFF" fill-rule="evenodd"/><path d="M2862.74 1618.7C2863.39 1618.7 2863.98 1619.08 2864.09 1619.62L2907.3 1845.49C2907.41 1845.98 2906.92 1846.41 2906.27 1846.41L2893.24 1846.41C2892.59 1846.41 2891.99 1846.03 2891.89 1845.49L2848.68 1619.62C2848.57 1619.13 2849.06 1618.7 2849.71 1618.7L2862.74 1618.7 2862.74 1618.7ZM2862.74 1614 2849.71 1614C2847.92 1614 2846.3 1614.76 2845.22 1616.05 2844.19 1617.29 2843.81 1618.91 2844.08 1620.43L2887.29 1846.3C2887.83 1849 2890.32 1851 2893.24 1851L2906.27 1851C2908.05 1851 2909.68 1850.24 2910.76 1848.95 2911.79 1847.71 2912.22 1846.14 2911.89 1844.57L2868.69 1618.7C2868.2 1616 2865.71 1614 2862.74 1614L2862.74 1614Z" fill-rule="evenodd"/><path d="M2719.26 1622.69C2719.91 1622.69 2720.4 1623.07 2720.29 1623.6L2676.12 1845.45C2676.01 1845.94 2675.41 1846.37 2674.76 1846.37L2661.72 1846.37C2661.07 1846.37 2660.58 1845.99 2660.69 1845.45L2704.86 1623.6C2704.97 1623.12 2705.57 1622.69 2706.22 1622.69L2719.26 1622.69 2719.26 1622.69ZM2719.26 1618 2706.22 1618C2703.29 1618 2700.75 1619.99 2700.26 1622.74L2656.08 1844.53C2655.81 1846.15 2656.19 1847.77 2657.22 1848.95 2658.3 1850.25 2659.93 1851 2661.72 1851L2674.76 1851C2677.74 1851 2680.23 1849.01 2680.72 1846.26L2724.89 1624.47C2725.22 1622.9 2724.79 1621.29 2723.76 1620.05 2722.73 1618.75 2721.05 1618 2719.26 1618L2719.26 1618Z" fill-rule="evenodd"/><path d="M2995.76 1618.7C2996.41 1618.7 2997.01 1619.07 2997.11 1619.56L3040.32 1845.39C3040.43 1845.87 3039.94 1846.3 3039.29 1846.3L3026.26 1846.3C3025.61 1846.3 3025.02 1845.93 3024.91 1845.39L2981.7 1619.56C2981.59 1619.07 2982.08 1618.7 2982.73 1618.7L2995.76 1618.7 2995.76 1618.7ZM2995.76 1614 2982.73 1614C2980.95 1614 2979.32 1614.76 2978.24 1616.05 2977.21 1617.29 2976.78 1618.86 2977.11 1620.42L3020.31 1846.3C3020.8 1849 3023.29 1851 3026.26 1851L3039.29 1851C3041.08 1851 3042.7 1850.24 3043.78 1848.95 3044.81 1847.71 3045.19 1846.09 3044.92 1844.58L3001.71 1618.75C3001.17 1616 2998.68 1614 2995.76 1614L2995.76 1614Z" fill-rule="evenodd"/><path d="M2853.29 1622.63C2853.93 1622.63 2854.42 1623.01 2854.31 1623.55L2810.14 1845.4C2810.03 1845.88 2809.43 1846.31 2808.78 1846.31L2795.74 1846.31C2795.09 1846.31 2794.6 1845.94 2794.71 1845.4L2838.88 1623.55C2838.99 1623.07 2839.59 1622.63 2840.24 1622.63L2853.29 1622.63 2853.29 1622.63ZM2853.29 1618 2840.24 1618C2837.31 1618 2834.77 1619.99 2834.28 1622.74L2790.11 1844.53C2789.78 1846.1 2790.21 1847.71 2791.24 1848.95 2792.33 1850.25 2793.95 1851 2795.74 1851L2808.78 1851C2811.71 1851 2814.2 1849.01 2814.74 1846.31L2858.92 1624.47C2859.19 1622.85 2858.81 1621.23 2857.78 1620.05 2856.64 1618.75 2855.02 1618 2853.29 1618L2853.29 1618Z" fill-rule="evenodd"/><path d="M2709.1 1665C2694.15 1665 2682 1652.85 2682 1638 2682 1623.1 2694.15 1610.95 2709.1 1610.95L2875.74 1610.89 3042.82 1311.62 3042.98 1311.3C3047.41 1301.63 3054.1 1287 3068.35 1287L3184.2 1287C3198.39 1287 3210 1298.56 3210 1312.81 3210 1313.19 3209.89 1313.62 3209.73 1313.95L3027.7 1640.05C3024.46 1647.88 3017.55 1664.73 3002.22 1664.73 3002.22 1664.73 2997.69 1664.95 2996.55 1664.95L2709.1 1665Z" fill="#FFFFFF" fill-rule="evenodd"/><path d="M3183.91 1289.63C3196.85 1289.63 3207.31 1300.14 3207.31 1313.08L3025.5 1638.54C3021.4 1648.41 3014.99 1661.93 3002.05 1661.93 3002.05 1661.93 2997.52 1662.15 2996.39 1662.15L2709.33 1662.26C2695.69 1662.26 2684.58 1651.21 2684.58 1637.63 2684.58 1623.99 2695.64 1613 2709.33 1613L2877.17 1612.94 3044.75 1313.08C3049.12 1303.49 3055.26 1289.63 3068.15 1289.63L3183.91 1289.63 3183.91 1289.63ZM3183.91 1285 3068.2 1285C3052.51 1285 3045.45 1300.41 3040.76 1310.65L3040.6 1310.98 2874.48 1608.31 2709.38 1608.36C2693.16 1608.36 2680 1621.51 2680 1637.68 2680 1653.85 2693.21 1667 2709.38 1667L2996.44 1666.89C2997.63 1666.89 3002.37 1666.68 3002.37 1666.68 3018.87 1666.68 3026.2 1649.27 3029.76 1640.65L3211.41 1315.4C3211.78 1314.7 3212 1313.94 3212 1313.13 3212 1297.56 3199.38 1285 3183.91 1285L3183.91 1285Z" fill-rule="evenodd"/><path d="M2934.87 1612.11C2934.87 1612.11 2979.49 1534.77 3020.43 1463.74 3021.08 1462.61 3102.22 1461.42 3102.87 1460.34 3115.06 1439.2 3111.07 1418.38 3111.55 1398.16 3112.36 1366.12 3112.2 1338.72 3112.2 1338.72L3189.67 1294.88C3189.67 1294.88 3205.96 1284.2 3208.98 1268.13 3212 1252.06 3208.5 1238.14 3195.93 1235.77 3183.36 1233.39 3110.69 1234.85 3110.69 1234.85 3110.69 1234.85 3108.64 1207.83 3090.46 1200.01 3072.28 1192.19 3049.73 1185.99 3025.45 1204.97 2983.48 1237.82 3004.63 1262.84 3004.63 1262.84L2989.36 1300.81C2989.36 1300.81 2974.15 1294.61 2965.08 1303.29 2956.02 1311.97 2951.11 1321.3 2951.11 1321.3L2876.12 1320.06 2907.25 1228.59 2899.81 1203.41C2899.81 1203.41 2897.32 1200.33 2895.44 1200.6 2893.6 1200.87 2892.95 1200.93 2892.95 1200.93L2884.54 1175.42C2884.54 1175.42 2861.02 1159.4 2857.78 1162.37 2854.54 1165.28 2852.66 1168.19 2854.65 1171.1 2856.65 1174.02 2873.32 1183.83 2873.32 1183.83L2875.8 1196.88 2852.76 1208.1C2852.76 1208.1 2847.31 1208.48 2848.72 1216.19 2850.12 1223.9 2853.3 1233.88 2856.49 1235.17 2859.67 1236.47 2862.1 1234.85 2862.1 1234.85 2862.1 1234.85 2862.1 1242.94 2862.42 1245.1 2862.74 1247.31 2863.98 1249.47 2863.98 1249.47L2835.34 1332.52C2835.34 1332.52 2831.51 1349.19 2841.27 1353.99 2851.04 1358.79 2855.57 1358.95 2855.57 1358.95L2941.13 1358.63C2941.13 1358.63 2929.75 1366.88 2933.96 1378.2 2938.22 1389.58 2950.14 1403.71 2950.14 1403.71 2950.14 1403.71 2945.18 1407.7 2946.09 1413.69 2947.01 1419.68 2948.9 1428.63 2948.9 1428.63 2948.9 1428.63 2926.94 1437.85 2907.52 1449.45 2888.1 1461.1 2865.82 1472.8 2865.82 1472.8L2792.4 1402.8C2792.4 1402.8 2753.18 1370.33 2715.52 1377.29 2671.39 1385.43 2638.38 1411.48 2638.38 1411.48 2638.38 1411.48 2635.57 1403.71 2629.04 1405.55 2622.51 1407.43 2599.48 1417.52 2599.48 1422.64 2599.48 1427.82 2603.2 1432.89 2603.2 1432.89L2433.32 1532.72C2433.32 1532.72 2412.01 1543.29 2396.9 1541.72 2381.8 1540.16 2366.32 1543.34 2360.81 1548.25 2355.31 1553.16 2348.68 1558.39 2351.8 1561.63 2354.88 1564.86 2471.3 1616.69 2471.3 1616.69 2471.3 1616.69 2482.3 1619.17 2487.16 1612.65 2492.01 1606.12 2510.79 1575.92 2510.79 1575.92L2547.47 1556.02C2547.47 1556.02 2533.99 1573.76 2535.33 1577.81 2536.68 1581.8 2538.73 1585.9 2538.73 1585.9L2424.53 1788.09C2424.53 1788.09 2412.28 1803.62 2395.88 1809.88 2379.48 1816.08 2366.21 1827.51 2363.51 1833.5 2360.81 1839.48 2357.31 1847.36 2361.03 1848.44 2364.75 1849.51 2493.26 1850 2493.26 1850 2493.26 1850 2505.66 1846.66 2507.88 1832.9 2510.09 1819.15 2510.41 1801.08 2510.68 1795.58 2510.95 1790.08 2515.97 1776.92 2515.97 1776.92L2619.28 1631.04C2619.28 1631.04 2638.59 1646.03 2643.55 1644.09 2648.52 1642.15 2659.09 1626.56 2661.63 1622.62 2667.61 1613.35 2657.9 1609.57 2657.9 1609.57L2676.57 1575.38 2873.21 1630.44C2873.21 1630.44 2895.27 1632.49 2909.62 1626.4 2923.97 1620.36 2934.87 1612.11 2934.87 1612.11Z" fill="#FFFFFF" fill-rule="evenodd"/><path d="M3112 1288.15 3093.43 1299.37C3093.43 1299.37 3081.41 1296.78 3071.16 1304.66 3060.91 1312.53 3055.71 1323 3055.71 1323L3049.81 1321.11 3061.88 1285.34C3061.88 1285.34 3071.75 1285.56 3077.66 1279.73 3083.56 1273.9 3086.14 1266.46 3081.36 1264.46 3076.64 1262.52 3072.99 1263.54 3072.99 1263.54L3064.62 1268.83 3060.27 1265.43C3060.27 1265.43 3061.72 1257.45 3063.65 1251.73 3065.58 1246.01 3065.21 1233.06 3065.21 1233.06 3065.21 1233.06 3049.27 1235.11 3039.5 1231.17 3029.74 1227.23 3024.32 1222.48 3024.32 1222.48 3024.32 1222.48 3015.36 1227.88 3012.89 1234.95 3010.37 1241.96 3009.51 1246.44 3009.51 1246.44L3007.15 1256.58 3001.46 1251.46C3001.46 1251.46 2998.24 1235.16 3008.86 1224.05 3019.54 1212.93 3037.52 1191.89 3058.39 1192 3079.21 1192.11 3105.94 1199.72 3108.83 1226.21 3111.84 1252.75 3112 1288.15 3112 1288.15Z" fill="#1A1A1A" fill-rule="evenodd"/><path d="M3112.89 1343 3083.31 1355.7 3022 1461.84 3088.6 1462.16C3088.6 1462.16 3110.4 1469.59 3111.97 1440.15 3113.48 1410.71 3112.89 1343 3112.89 1343Z" fill="#1A1A1A" fill-rule="evenodd"/><path d="M3038 1288.96 3028.52 1316.45 3007.03 1318C3007.03 1318 3004.29 1312.54 3000.4 1309.32 2996.45 1306.11 2989 1302.52 2989 1302.52L3005.11 1267 3009.22 1267.32C3009.22 1267.32 3008.29 1281.73 3020.3 1286.77 3032.3 1291.91 3038 1288.96 3038 1288.96Z" fill="#1A1A1A" fill-rule="evenodd"/><path d="M3010 1484.88C3010 1484.88 3006.82 1473.93 2989.12 1463.95 2971.15 1453.81 2916.06 1442.16 2915.09 1445.07 2915.09 1445.07 2899.82 1452.94 2891.46 1457.53 2883.09 1462.06 2868.74 1474.04 2868.74 1474.04L2800.27 1409.31C2800.27 1409.31 2766.55 1374.95 2734.93 1376.02 2723.11 1376.4 2704.82 1377.27 2688.58 1383.47 2661.33 1393.93 2636.95 1411.79 2636.95 1411.79 2636.95 1411.79 2636.46 1404.29 2630.42 1405.58 2624.37 1406.88 2600.58 1420.15 2600.52 1423.6 2600.47 1427.05 2603.33 1432.61 2603.33 1432.61L2626.96 1469.94C2626.96 1469.94 2608.62 1474.31 2596.8 1492.32 2584.93 1510.39 2563.83 1550.2 2563.83 1550.2 2563.83 1550.2 2558.12 1548.15 2554.5 1551.12 2550.89 1554.14 2535.83 1576.2 2537.07 1579.76 2538.31 1583.27 2542.36 1586.29 2542.36 1586.29L2641.64 1646C2641.64 1646 2651.84 1639.69 2656.91 1632.3 2661.98 1624.91 2666.19 1616.55 2664.68 1614.28 2663.17 1612.02 2658.47 1608.67 2658.47 1608.67L2675.9 1576.31 2845.81 1621.08C2845.81 1621.08 2860.16 1633.49 2890 1629.17 2919.84 1624.86 2925.88 1624.8 2947.57 1591.84 2969.16 1558.94 3010 1484.88 3010 1484.88Z" fill="#1A1A1A" fill-rule="evenodd"/><path d="M2514 1783.98 2509.63 1803.17 2481.01 1839.36 2427.22 1840C2427.22 1840 2426.08 1825.36 2417.89 1820.22 2409.7 1815.07 2398 1809.39 2398 1809.39 2398 1809.39 2416.6 1798.61 2421.34 1792.71 2426.03 1786.82 2437.19 1768 2437.19 1768L2514 1783.98Z" fill="#1A1A1A" fill-rule="evenodd"/><path d="M2513.92 1569.85C2512.78 1568.51 2469.39 1513 2469.39 1513 2469.39 1513 2447.21 1528.43 2431.45 1534 2415.68 1539.58 2391 1542.04 2391 1542.04 2391 1542.04 2403.4 1547.29 2406.39 1557.21 2409.32 1567.06 2410.46 1577.89 2410.46 1577.89L2461.56 1602C2461.56 1602 2476.95 1590.16 2486.03 1589.35 2495.11 1588.55 2503.91 1585.66 2503.91 1585.66 2503.91 1585.66 2515.06 1571.19 2513.92 1569.85Z" fill="#1A1A1A" fill-rule="evenodd"/><path d="M2859.89 1160C2859.35 1160 2858.87 1160 2858.33 1160 2852.51 1161.29 2851.32 1167.55 2852.4 1171.22 2853.53 1175 2858.44 1175.65 2862.37 1178.08 2863.83 1178.99 2865.61 1180.4 2867.33 1181.47 2869.17 1182.61 2872.08 1183.74 2872.62 1184.6 2873 1185.2 2875.75 1194.32 2875.42 1195.18 2875.15 1195.83 2869.71 1198.31 2867.98 1199.23 2864.85 1200.9 2862.32 1201.82 2860.22 1202.95 2855.36 1205.54 2848.3 1207.86 2847.17 1212.61 2846.14 1216.76 2848.19 1222.91 2849.97 1227.23 2851.05 1229.82 2853.31 1234.51 2854.66 1235.64 2855.96 1236.67 2857.74 1236.67 2860.27 1236.89 2859.68 1241.36 2862.05 1244.82 2861.83 1247.78 2861.56 1251.02 2859.41 1254.8 2858.11 1258.68 2850.62 1280.75 2843.77 1302.23 2836.33 1324.35 2835.14 1327.96 2833.15 1331.79 2832.61 1334.92 2830.56 1346.68 2837.95 1356.72 2845.06 1359.2 2850.13 1360.98 2859.3 1360.77 2866.85 1360.77 2886.85 1360.77 2904.49 1360.77 2925.3 1360.77 2927.78 1360.77 2935.65 1359.9 2936.78 1360.77 2937.22 1361.09 2933.17 1366.86 2932.74 1367.94 2927.83 1380.08 2935 1390.66 2941.42 1397.51 2942.39 1398.53 2946.81 1401.29 2947.03 1402.47 2947.19 1403.55 2944.01 1408.14 2943.63 1411.16 2943.31 1413.64 2943.58 1416.12 2943.96 1418.34 2944.71 1422.87 2947.68 1425.08 2944.87 1427.99 2943.47 1429.45 2938.19 1430.75 2936.46 1431.39 2912.36 1441.05 2891.06 1452.87 2870.84 1466.84 2869.87 1467.54 2866.74 1470.24 2866.47 1470.24 2865.99 1470.24 2862.1 1466.19 2860.54 1464.63 2847.44 1451.52 2833.9 1437.98 2821.07 1425.13 2812.07 1416.12 2803.22 1405.01 2791.84 1397.78 2789.53 1396.27 2787.75 1394.43 2785.64 1392.82 2781.28 1389.52 2776.21 1386.77 2771.68 1384.4 2760.79 1378.79 2750.76 1374.58 2737.17 1373.5 2709.72 1371.29 2684.76 1380.19 2665.99 1391.25 2659.31 1395.19 2652.78 1399.88 2645.18 1404.31 2643.67 1405.17 2638.65 1408.41 2638.01 1408.35 2635.69 1408.08 2635.2 1403.23 2632.4 1402.74 2630.46 1402.42 2626.58 1403.98 2623.99 1404.9 2617.36 1407.33 2608.19 1411.32 2603.44 1415.15 2601.18 1416.99 2597.46 1420.55 2597.51 1424.16 2597.57 1426.43 2601.72 1429.88 2601.23 1431.93 2600.91 1433.23 2593.79 1436.36 2590.67 1438.14 2544.51 1464.63 2499.05 1490.85 2453.22 1517.77 2447.94 1520.85 2442.71 1523.76 2437.37 1527.11 2433.97 1529.27 2431.65 1530.62 2427.12 1532.4 2422.43 1534.23 2416.5 1536.82 2410.95 1538.01 2403.29 1539.63 2394.66 1537.9 2385.12 1538.66 2377.08 1539.25 2369.27 1541.52 2362.74 1545.18 2358.43 1547.61 2348.24 1553.98 2349.05 1560.45 2349.58 1564.72 2357.4 1567.58 2362.42 1569.79 2394.34 1583.87 2424.53 1597.36 2456.62 1611.82 2461.52 1614.03 2467.78 1618.02 2472.47 1618.67 2474.14 1618.89 2476.19 1618.45 2478.4 1618.35 2481.31 1618.18 2483.69 1617.92 2484.93 1617.43 2492.26 1614.62 2495.82 1604.32 2499.86 1597.2 2502.77 1592.07 2506.39 1586.51 2509.84 1581.01 2510.97 1579.18 2512.21 1576.59 2513.23 1575.72 2514.96 1574.27 2518.03 1573.56 2520.08 1572.59 2527.36 1569.19 2532.11 1567.2 2540.3 1563.26 2538.79 1567.79 2529.41 1578.47 2535.94 1584.41 2536.47 1584.89 2538.36 1585.65 2538.42 1585.97 2538.63 1586.68 2532.11 1597.3 2531.24 1598.71 2497.76 1656.65 2464.06 1714.76 2430.84 1772.6 2426.37 1780.37 2422.32 1787.44 2415.91 1793.43 2413.05 1796.07 2410.08 1798.66 2407.23 1800.88 2401.19 1805.62 2393.48 1807.94 2385.77 1811.77 2375.09 1817.01 2365.98 1823.59 2360.58 1835.14 2359.02 1838.43 2356.81 1844.42 2358.7 1847.6 2360.26 1850.19 2363.28 1850.19 2367.11 1851 2409.17 1851 2451.28 1851 2493.34 1851 2495.98 1849.92 2504.07 1846.95 2506.71 1843.82 2510 1839.89 2510.48 1832.01 2511.08 1825.16 2511.62 1818.68 2512.26 1811.94 2512.97 1806.81 2514.53 1795.48 2516.15 1783.12 2521.05 1774.76 2523.37 1770.82 2526.66 1767.1 2529.46 1763.27 2557.61 1723.94 2585.27 1684.87 2613.1 1645.32 2615.09 1642.46 2619.84 1633.99 2621.78 1633.83 2622.59 1633.78 2625.93 1636.31 2627.06 1636.96 2629.43 1638.31 2631.16 1639.23 2632.67 1640.09 2636.34 1642.19 2640.22 1645.92 2644.48 1645.7 2651.22 1645.32 2655.8 1637.82 2659.09 1633.24 2663.4 1627.25 2671.55 1616.4 2665.02 1609.61 2663.84 1608.36 2661.03 1607.39 2660.98 1605.88 2660.92 1604.86 2664.38 1600.7 2665.35 1599.03 2668.47 1593.53 2670.47 1589.86 2673.43 1584.73 2674.35 1583.17 2676.45 1577.93 2677.8 1577.56 2678.13 1577.45 2682.92 1578.96 2684.65 1579.45 2729.84 1591.48 2774.43 1603.83 2818.32 1615.54 2827.86 1618.08 2837.73 1619.86 2845.98 1623.63 2854.66 1627.63 2863.72 1630.27 2873.37 1632.05 2883.35 1633.89 2893.7 1632.32 2903.84 1629.89 2924.38 1624.93 2936.51 1616.08 2945.52 1600 2968.81 1558.51 2993.62 1517.07 3017.67 1475.53 3018.91 1473.42 3022.95 1464.04 3025.11 1464.04 3042.15 1464.04 3061.07 1464.04 3078.27 1464.04 3087.33 1464.04 3095.47 1464.63 3101.57 1461.88 3107.39 1459.23 3111.54 1453.41 3113.38 1446.93 3115.37 1439.92 3114.62 1430.75 3114.62 1421.73 3114.62 1398.91 3114.62 1377.76 3114.62 1354.83 3114.62 1351.59 3113.48 1344.2 3114.62 1341.45 3115.05 1340.43 3120.01 1338 3122.06 1336.76 3140.01 1326.34 3159.15 1315.66 3176.46 1305.62 3195.87 1294.4 3219.6 1279.19 3211.3 1245.9 3209.79 1239.85 3201.27 1233.16 3194.53 1232.19 3191.94 1231.81 3189.57 1232.3 3186.44 1232.19 3165.03 1231.6 3143.73 1232.57 3123.3 1231.54 3121.52 1231.44 3114.29 1232.52 3113.05 1231.54 3112.84 1231.38 3112.3 1226.74 3112.14 1225.93 3110.84 1220.21 3108.85 1215.09 3106.53 1211.63 3096.93 1197.12 3074.07 1185.2 3049.96 1191.08 3030.18 1195.93 3013.57 1209.64 3003.65 1225.02 2997.82 1234.03 2994.32 1248.27 3002.08 1256.74 3003.11 1257.87 3006.88 1260.14 3006.13 1262.68 3005.8 1263.76 3004.4 1263.59 3003.32 1264.56 3002.68 1265.16 3001.76 1266.78 3001.44 1267.37 2998.09 1274.28 2994.43 1283.23 2990.54 1291 2989.57 1293 2987.42 1298.39 2986.5 1298.77 2985.53 1299.15 2981.65 1297.91 2980.3 1297.85 2967.47 1297.26 2958.51 1304.81 2953.23 1311.83 2951.34 1314.31 2950.48 1317.98 2948.54 1318.68 2946.87 1319.27 2942.77 1318.68 2939.86 1318.68 2918.51 1318.68 2899.63 1318.95 2878.93 1318.36 2887.12 1293.92 2897.58 1263.81 2906 1238.4 2907.24 1234.62 2909.55 1229.39 2909.39 1226.26 2909.23 1222.64 2906.64 1217.52 2905.35 1213.52 2904.16 1209.91 2903.19 1203.54 2900.98 1200.79 2899.69 1199.17 2895.97 1198.9 2894.46 1197.07 2893.59 1195.99 2893.27 1193.4 2892.57 1191.46 2890.74 1186.22 2889.17 1179.64 2886.37 1175.27 2881.57 1167.88 2867.6 1164.53 2859.89 1160ZM2881.35 1201.71C2882.16 1200.74 2880.81 1198.74 2880.44 1197.34 2879.3 1193.18 2878.23 1185.57 2876.39 1183.04 2874.72 1180.77 2869.06 1178.51 2866.74 1177.16 2865.23 1176.24 2857.57 1172.09 2857.09 1170.95 2856.01 1168.42 2858.01 1163.35 2859.57 1164.1 2866.15 1167.28 2875.04 1170.04 2881.03 1175 2883.94 1177.37 2885.07 1182.5 2886.91 1187.73 2887.5 1189.41 2888.04 1191.24 2888.79 1193.34 2889.28 1194.69 2890.84 1197.98 2890.68 1198.96 2890.36 1200.47 2881.35 1206.19 2879.79 1206.4 2879.3 1206.46 2877.69 1205.92 2877.31 1206.08 2874.83 1207.1 2875.1 1211.58 2871.11 1211.69 2871.43 1209.48 2868.2 1204.3 2868.95 1202.35 2869.65 1200.47 2875.48 1199.76 2876.39 1198.63 2876.02 1201.28 2879.47 1203.97 2881.35 1201.71ZM3075.69 1225.99C3074.88 1225.45 3072.18 1226.42 3070.08 1227.23 3059.08 1231.54 3046.73 1231.6 3036.48 1226.9 3032.66 1225.12 3027.37 1222.59 3025.92 1219.13 3025.75 1218.7 3025.7 1213.25 3023.76 1212.61 3022.25 1212.12 3020.85 1213.31 3020.36 1214.17 3018.91 1216.44 3021.17 1219.03 3020.69 1220.7 3020.36 1221.72 3017.02 1223.83 3016.05 1225.07 3010.39 1232.03 3007.37 1242.71 3006.07 1253.4 2999.33 1244.33 3006.34 1230.46 3011.03 1224.15 3021.22 1210.45 3038.43 1195.12 3059.24 1193.99 3086.74 1192.48 3106.42 1210.5 3107.77 1236.94 3108.36 1248.32 3109.01 1260.63 3109.01 1273.95 3109.01 1277.3 3110.25 1284.26 3109.01 1287.01 3108.36 1288.47 3100.97 1291.54 3099.68 1292.3 3096.44 1294.19 3093.32 1297.15 3090.35 1297.58 3088.3 1297.91 3086.09 1297.1 3084.15 1297.26 3070.4 1298.45 3059.35 1308.48 3054.01 1315.93 3056.97 1308.11 3059.13 1301.31 3062.1 1293.21 3062.69 1291.54 3064.09 1285.98 3064.9 1285.45 3066.03 1284.69 3068.78 1285.39 3070.19 1285.12 3076.49 1283.88 3086.04 1278.38 3086.36 1271.42 3086.68 1265.37 3081.83 1261.06 3077.36 1260.52 3075.79 1260.36 3070.56 1260.63 3069.92 1260.84 3068.89 1261.22 3066.84 1264.83 3065.28 1264.56 3061.29 1263.97 3065.39 1255.23 3066.19 1252.1 3068.3 1244.44 3069.11 1238.72 3067.44 1232.79 3069.7 1233.16 3079.84 1228.85 3075.69 1225.99ZM2874.51 1244.92C2874.83 1248.76 2876.07 1255.23 2879.79 1255.82 2886.21 1256.85 2880.92 1251.62 2880.44 1250.21 2877.58 1242.82 2879.9 1232.08 2883.83 1228.15 2884.97 1227.01 2888.26 1226.15 2888.2 1224.75 2888.15 1223.56 2885.34 1222.64 2884.16 1221.94 2882.76 1221.13 2880.71 1219.78 2879.52 1219.78 2876.66 1219.78 2876.07 1222.32 2872.67 1222.91 2869.11 1223.51 2865.55 1222.43 2865.5 1220.11 2865.5 1219.3 2867.6 1218.06 2868.3 1217.62 2875.42 1213.09 2880.76 1210.02 2887.61 1205.81 2889.28 1204.78 2893.97 1201.38 2896.29 1202.09 2898.77 1202.79 2899.74 1210.23 2900.98 1213.9 2902.38 1218.11 2905.4 1223.07 2905.02 1226.63 2904.92 1227.5 2903.95 1228.63 2903.46 1229.76 2900.44 1237.05 2898.23 1244.71 2895.7 1252.48 2889.6 1270.93 2882.76 1291.06 2876.72 1309.73 2875.26 1314.2 2872.35 1318.95 2873.91 1321.54 2875.1 1323.54 2880.76 1323.11 2884.8 1323.11 2890.63 1323.11 2893.05 1323.11 2897.53 1323.11 2892.89 1331.09 2889.55 1344.04 2892.25 1356.4 2880.76 1355.86 2868.14 1356.99 2857.41 1356.72 2854.39 1356.67 2850.13 1356.34 2847.44 1355.48 2841.24 1353.43 2836.65 1343.82 2838.11 1334.33 2838.59 1331.25 2840.37 1327.8 2841.51 1324.4 2849.16 1301.58 2857.79 1275.84 2864.8 1254.1 2867.17 1255.18 2868.36 1258.36 2871.97 1258.14 2877.9 1257.77 2871.65 1254.69 2870.41 1253.45 2867.87 1250.97 2865.82 1244.33 2865.12 1239.15 2864.42 1233.76 2864.21 1235.16 2868.25 1232.95 2871.65 1231.06 2877.79 1227.07 2879.74 1226.74 2876.02 1231.22 2873.75 1236.56 2874.51 1244.92ZM2867.33 1214.12C2867.28 1214.33 2864.75 1216.11 2863.61 1216.6 2863.13 1216.81 2861.78 1216.65 2861.46 1216.92 2859.03 1218.76 2860.32 1221.94 2861.78 1223.45 2863.94 1225.72 2867.82 1225.77 2870.79 1227.5 2867.87 1227.55 2866.09 1232.25 2863.34 1231.22 2861.83 1230.68 2860.7 1224.8 2859.95 1221.56 2858.92 1217.41 2858.65 1213.15 2858.06 1210.07 2858.01 1209.64 2857.3 1208.45 2857.41 1208.18 2857.84 1207.1 2864.48 1205.27 2864.85 1204.46 2864.48 1206.46 2867.87 1212.66 2867.33 1214.12ZM2857.41 1228.47C2858.01 1230.03 2859.25 1231.38 2858.98 1232.84 2855.36 1229.28 2849.16 1215.74 2853.69 1210.12 2854.23 1216.76 2855.47 1223.34 2857.41 1228.47ZM3042.42 1328.34C3034.54 1334.65 3023.81 1342.75 3012.27 1344.2 3004.99 1345.12 2998.31 1342.69 2999.55 1335.19 3000.25 1330.82 3008.23 1320.84 3012 1319.92 3017.5 1318.63 3021.6 1321.43 3027.53 1319.92 3028.72 1319.6 3030.55 1317.87 3031.25 1316.79 3033.36 1313.72 3034.06 1309.73 3035.89 1304.65 3037.46 1300.39 3040.21 1295.16 3040.26 1291.92 3040.26 1291.06 3039.45 1290.03 3039.94 1289.44 3041.61 1287.55 3051.58 1287.12 3051.42 1283.83 3051.2 1279.24 3042.85 1284.42 3040.85 1285.07 3037.62 1286.15 3034.17 1286.74 3031.52 1286.96 3018.8 1287.82 3012.33 1274.92 3011.3 1263.92 3011.2 1262.84 3010.82 1261.06 3010.98 1260.19 3011.03 1259.98 3011.84 1259.82 3011.9 1258.63 3012.06 1256.85 3011.57 1255.07 3011.57 1253.34 3011.68 1242.07 3016.8 1229.93 3023.06 1224.42 3023.65 1223.88 3023.54 1224.69 3023.97 1225.07 3032.66 1232.08 3047.11 1236.56 3062.85 1234.4 3062.8 1242.28 3061.67 1247.19 3059.72 1253.99 3058.11 1259.71 3054.76 1268.29 3062.53 1267.96 3061.94 1270.01 3058.86 1270.55 3060.05 1272.66 3060.64 1273.68 3061.18 1272.39 3062.85 1273.31 3063.5 1273.68 3063.18 1274.65 3064.42 1274.87 3068.57 1275.63 3077.3 1273.79 3077.46 1272.39 3077.9 1269.26 3071.16 1270.72 3068.46 1269.91 3071.05 1266.61 3072.77 1263.59 3076.87 1264.62 3079.19 1265.21 3081.02 1269.2 3080.59 1271.79 3079.94 1275.73 3071.37 1281.72 3065.66 1281.13 3063.55 1280.91 3060.59 1277.51 3058.48 1278.65 3055.41 1280.27 3059.83 1282.48 3060.05 1284.26 3060.1 1284.69 3058.75 1287.12 3058.16 1288.63 3054.12 1299.47 3050.07 1310.86 3046.68 1320.68 3047.59 1320.73 3049.1 1319.81 3049.8 1320.68 3048.45 1323.54 3045.33 1325.97 3042.42 1328.34ZM3159.32 1237.16C3164.6 1237.37 3169.83 1237.16 3175.17 1237.16 3180.72 1237.16 3186.76 1236.29 3191.94 1237.16 3196.85 1237.96 3203.96 1242.17 3205.63 1245.84 3207.09 1249.08 3207.47 1255.66 3207.2 1260.46 3206.12 1278.16 3195.71 1286.96 3183.58 1294.08 3175.01 1299.1 3165.79 1304.76 3156.51 1309.94 3154.41 1311.13 3148.21 1315.34 3147.18 1315.23 3145.3 1315.07 3142.98 1309.78 3141.58 1307.78 3137.53 1301.9 3135 1297.91 3131.01 1292.24 3130.52 1291.54 3125.24 1285.55 3125.72 1284.15 3125.78 1283.99 3130.31 1281.45 3131.65 1280.75 3134.14 1279.35 3135.54 1278.97 3137.86 1277.62 3142.92 1274.71 3145.51 1271.58 3149.66 1270.77 3152.25 1270.28 3158.08 1271.9 3158.99 1269.85 3159.53 1268.67 3157.05 1266.08 3156.19 1265.81 3153.49 1264.94 3148.64 1265.86 3145.3 1265.81 3137.32 1265.59 3125.13 1265.59 3114.51 1265.16 3114.62 1255.18 3114.67 1245.3 3113.59 1236.56 3129.55 1236.99 3143.3 1236.51 3159.32 1237.16ZM3034.92 1290.36C3033.2 1296.99 3031.09 1302.76 3028.72 1309.35 3028.18 1310.86 3026.83 1315.23 3026.24 1315.55 3024.51 1316.52 3018.96 1315.55 3017.56 1315.55 3015.35 1315.55 3010.06 1316.31 3008.55 1315.55 3007.69 1315.12 3006.88 1311.88 3006.07 1310.86 3002.19 1305.95 2996.47 1302.76 2991.14 1300.61 2996.8 1290.36 3001.49 1279.02 3006.99 1268.56 3009.85 1281.94 3018.04 1293.05 3034.92 1290.36ZM3114.56 1283.5C3114.56 1279.13 3114.56 1274.76 3114.56 1270.45 3121.9 1270.66 3130.09 1270.01 3136.94 1270.77 3129.5 1275.03 3122.27 1279.56 3114.56 1283.5ZM3098.71 1343.28C3094.02 1345.98 3089.33 1349.6 3084.42 1351.7 3083.88 1351.92 3081.78 1351.97 3081.29 1352.35 3080.75 1352.73 3079.84 1355.26 3078.81 1357.04 3066.79 1377.55 3056.38 1395.94 3044.63 1416.18 3043.17 1418.71 3040.58 1424.59 3039.02 1425.19 3037.19 1425.89 3032.06 1425.19 3028.45 1425.19 3005.75 1425.19 2984.83 1425.19 2963.15 1425.19 2959.92 1425.19 2954.09 1426 2952.26 1425.19 2948.92 1423.68 2948.7 1411.54 2950.1 1407.76 2950.64 1406.3 2954.09 1402.53 2953.82 1401.23 2953.55 1399.94 2950.43 1399.18 2949.46 1398.43 2943.69 1393.84 2933.82 1381.97 2937.65 1371.07 2940.88 1361.9 2949.29 1355.26 2956.63 1349.92 2958.57 1348.52 2964.28 1345.66 2964.07 1343.99 2963.74 1341.61 2959.75 1341.88 2957.22 1343.34 2952.21 1346.25 2949.51 1348.68 2945.41 1352.03 2943.85 1353.32 2942.01 1356.23 2939.8 1356.72 2937.54 1357.15 2933.06 1356.4 2929.56 1356.4 2921.63 1356.4 2916.78 1356.4 2908.42 1356.4 2905.19 1356.4 2899.09 1357.37 2897.85 1356.4 2897.15 1355.86 2896.94 1349.33 2896.94 1347.06 2896.94 1339.13 2898.18 1335.41 2900.33 1329.96 2901.03 1328.12 2902.81 1323.54 2903.73 1323.11 2905.35 1322.35 2912.36 1323.11 2916.19 1323.11 2926.05 1323.11 2931.55 1323.11 2941.37 1323.11 2945.14 1323.11 2951.67 1323.86 2953.5 1322.46 2954.79 1321.49 2955.44 1317.6 2956.3 1316.25 2960.51 1309.62 2968.33 1302.39 2978.09 1301.96 2985.26 1301.63 2989.9 1304.17 2994.86 1307.57 2997.88 1309.67 3004.08 1314.53 3003.86 1318.47 3003.81 1319.87 2999.93 1323 2998.9 1324.4 2997.07 1326.77 2995.23 1329.31 2994.21 1331.58 2989.14 1343.12 2999.76 1350.08 3010.98 1349.33 3028.13 1348.14 3042.42 1336.65 3052.34 1327.53 3054.12 1325.91 3056.38 1324.62 3057.3 1323.48 3058.75 1321.7 3059.24 1319.11 3060.43 1317.28 3064.74 1310.48 3077.57 1299.8 3089 1302.01 3090.35 1302.28 3091.97 1303.9 3092.4 1303.9 3093.53 1303.9 3098.06 1300.55 3099.25 1299.85 3104.75 1296.61 3107.82 1294.89 3113.21 1291.76 3115.96 1290.19 3120.06 1286.9 3121.3 1288.36 3128.96 1297.15 3133.97 1308.11 3141.85 1318.52 3126.86 1326.72 3113.05 1334.98 3098.71 1343.28ZM3081.29 1364.7C3082.64 1362.39 3083.77 1359.47 3085.01 1358.18 3087.6 1355.53 3093.37 1353.32 3096.82 1351.32 3101.08 1348.84 3105.5 1346.2 3108.95 1344.47 3108.95 1373.39 3108.95 1403.17 3108.95 1431.61 3108.95 1435.76 3109.76 1440.13 3109.28 1443.75 3108.52 1449.2 3103.62 1455.89 3098.71 1458.37 3094.23 1460.64 3087.71 1459.94 3080.97 1459.94 3063.18 1459.94 3043.98 1459.29 3026.89 1459.61 3043.6 1429.67 3063.39 1395.68 3081.29 1364.7ZM2681.74 1470.19C2679.47 1469.54 2673.65 1468.68 2672.09 1467.7 2669.5 1466.14 2666.26 1457.67 2664.32 1454.32 2657.64 1442.78 2651.33 1432.47 2644.42 1420.71 2643.29 1418.77 2640.38 1414.45 2640.7 1413.53 2640.81 1413.21 2645.61 1410.67 2646.64 1410.14 2657.47 1404.04 2666.86 1398.32 2676.78 1392.71 2680.5 1390.66 2684.7 1387.53 2688.91 1385.86 2698.08 1382.19 2713.82 1379.38 2726.87 1379 2753.4 1378.3 2774.59 1393.68 2792.17 1405.76 2799.99 1411.11 2807.05 1419.42 2813.95 1426.32 2845.82 1458.21 2877.36 1490.1 2909.39 1522.15 2911.66 1524.41 2918.61 1532.56 2920.61 1532.4 2920.93 1532.4 2923.3 1530.13 2923.41 1529.59 2923.9 1526.84 2919.58 1523.28 2917.8 1521.5 2905.51 1509.2 2894.56 1498.51 2883.29 1487.29 2878.55 1482.54 2873.8 1478.06 2870.25 1473.32 2880.65 1466.25 2891.28 1459.13 2902.87 1452.76 2905.56 1451.3 2912.09 1447.15 2914.68 1446.88 2918.13 1446.5 2924.06 1448.07 2928.64 1448.77 2933.5 1449.47 2938.4 1450.55 2942.01 1451.25 2963.58 1455.56 2984.5 1461.55 2998.9 1473.64 3001.54 1475.85 3006.4 1479.84 3006.34 1482.33 3006.34 1483.68 3002.84 1488.15 3001.38 1490.74 2982.94 1522.85 2966.06 1552.52 2947.57 1584.09 2940.56 1596.12 2934.74 1607.66 2924.54 1614.57 2915.81 1620.5 2901.3 1624.82 2887.23 1626.06 2876.29 1627.03 2869.06 1624.34 2860.49 1622.02 2855.63 1620.72 2850.83 1619.7 2847.11 1617.65 2844.42 1616.13 2841.61 1613.33 2838.7 1610.79 2835.84 1608.31 2832.39 1606.1 2830.29 1603.62 2828.94 1602 2828.24 1600 2826.89 1598.33 2817.78 1587.05 2807.59 1576.91 2797.99 1566.28 2766.29 1531.16 2735.6 1495.98 2703.14 1460.8 2701.53 1459.07 2700.29 1456.91 2698.45 1457.67 2693.28 1459.88 2700.18 1466.68 2701.85 1468.57 2703.25 1470.08 2704.82 1471.75 2706.22 1473.26 2707.57 1474.72 2709.88 1476.93 2709.62 1477.9 2700.88 1475.37 2691.01 1472.83 2681.74 1470.19ZM2636.34 1466.14C2633.86 1466.52 2628.95 1468.14 2627.66 1467.7 2626.52 1467.33 2625.5 1464.09 2624.53 1462.42 2619.03 1452.76 2614.07 1444.61 2609 1435.98 2607.87 1434.09 2602.96 1426.91 2603.07 1424.76 2603.18 1423.19 2605.76 1420.39 2606.79 1419.47 2609.43 1417.15 2613.42 1415.37 2618.27 1412.94 2620.27 1411.92 2630.89 1406.36 2632.24 1408.25 2635.2 1412.4 2637.63 1417.74 2640.33 1422.54 2648.41 1436.84 2657.26 1451.84 2664.91 1465.82 2655.75 1465.01 2645.18 1464.9 2636.34 1466.14ZM3009.47 1477.04C2989.63 1456.32 2956.79 1448.66 2921.79 1443.1 2925.89 1441.32 2930.31 1438.95 2935.17 1436.9 2939.91 1434.85 2945.36 1433.71 2949.78 1431.61 2950.97 1431.07 2951.94 1429.72 2953.18 1429.45 2958.89 1428.1 2967.52 1429.45 2973.99 1429.45 2995.02 1429.45 3016.37 1429.45 3036.48 1429.45 3036.7 1429.45 3036.86 1429.5 3036.81 1429.77 3027.59 1445.37 3018.53 1461.28 3009.47 1477.04ZM2547.1 1553.6C2543.86 1555.6 2536.58 1558.51 2531.57 1560.78 2529.2 1561.86 2526.88 1562.77 2523.8 1564.18 2521.54 1565.26 2517.01 1567.79 2515.72 1567.58 2514.15 1567.31 2511.24 1562.77 2510.11 1561.37 2498.89 1546.8 2489.56 1534.39 2478.73 1519.99 2477.92 1518.91 2473.17 1514.27 2473.44 1513.13 2473.55 1512.76 2479.97 1509.36 2481.53 1508.44 2522.46 1484.7 2564.41 1461.01 2604.04 1437.81 2604.95 1437.27 2604.58 1437.87 2604.95 1438.46 2611.21 1448.01 2617.84 1460.31 2622.69 1469.27 2618.49 1470.89 2613.8 1471.59 2609.97 1473.96 2608.08 1475.1 2606.3 1477.63 2604.36 1479.57 2602.37 1481.57 2599.94 1483.19 2598.43 1484.86 2587.05 1498.03 2578.26 1517.29 2569.2 1532.77 2565.97 1538.28 2562.73 1543.57 2559.88 1548.64 2553.68 1544.32 2550.82 1551.28 2547.1 1553.6ZM2679.85 1573.51C2676.67 1572.65 2670.58 1571.35 2669.61 1573.19 2669.01 1574.32 2671.33 1575.02 2671.17 1576.59 2671.06 1577.45 2668.31 1581.06 2667.13 1583.11 2664.16 1588.29 2662.22 1591.48 2659.36 1596.49 2658.44 1598.11 2656.18 1603.13 2655.64 1603.35 2654.45 1603.78 2651.16 1600.87 2650.03 1600.22 2623.18 1584.89 2597.46 1570.11 2570.77 1554.79 2569.31 1553.92 2565.32 1552.47 2565.16 1551.39 2565.16 1551.33 2567.37 1547.77 2567.96 1546.69 2574.7 1535.15 2581.28 1523.6 2587.54 1512.76 2591.26 1506.28 2594.66 1499.7 2599.02 1493.77 2603.23 1488.05 2608.35 1481.36 2613.96 1477.9 2618.65 1474.99 2626.25 1472.78 2632.94 1471.37 2640.43 1469.81 2648.31 1469.7 2656.23 1470.13 2666.42 1470.62 2676.13 1474.18 2686.38 1476.98 2693.49 1478.93 2701.63 1481.03 2708.43 1482.87 2711.12 1483.62 2714.41 1483.84 2716.19 1484.75 2718.03 1485.67 2720.29 1489.18 2722.72 1491.93 2753.45 1526.25 2783.59 1560.08 2814.11 1593.69 2816.38 1596.17 2819.34 1598.44 2820.96 1600.87 2822.04 1602.48 2822.2 1604.05 2822.85 1604.91 2824.84 1607.72 2827.97 1610.36 2830.29 1612.36 2830.88 1612.84 2832.5 1613.33 2832.18 1614.52 2781.76 1601.14 2730.64 1586.89 2679.85 1573.51ZM2469.07 1517.18C2481.26 1531.8 2492.96 1547.99 2505.15 1563.85 2506.39 1565.47 2510.43 1570.22 2510.43 1570.7 2510.38 1571.3 2507.73 1573.35 2507.3 1573.83 2505.96 1575.51 2502.07 1583.28 2500.46 1584.09 2499.22 1584.68 2496.03 1584.35 2494.25 1584.73 2485.14 1586.57 2476.95 1589.97 2469.4 1594.07 2467.08 1595.31 2462.44 1599.03 2460.72 1599.03 2459.8 1599.03 2457.05 1597.09 2455.11 1596.23 2442.76 1590.67 2432.08 1586.08 2419.95 1580.69 2418.23 1579.93 2413.91 1578.53 2413.75 1578.2 2413.21 1577.29 2413.86 1573.56 2413.75 1572 2413.1 1560.83 2407.5 1551.28 2401.94 1544.91 2399.84 1542.49 2404.58 1543.78 2406.9 1543.67 2413.21 1543.35 2419.9 1541.35 2425.88 1539.03 2431.71 1536.71 2437.8 1534.29 2442.65 1531.59 2451.76 1526.46 2459.91 1520.31 2467.83 1516.32 2468.26 1516.1 2468.64 1516.59 2468.75 1516.64 2469.18 1516.7 2468.8 1516.86 2469.07 1517.18ZM2490.8 1601.51C2488.65 1605.18 2485.79 1611.55 2482.07 1613.01 2480.5 1613.65 2474.09 1614.46 2472.15 1614.25 2470.64 1614.08 2467.67 1612.03 2464.98 1610.85 2432.46 1596.39 2401.94 1582.95 2369.54 1568.55 2367.7 1567.74 2355.41 1563.1 2354.92 1561.69 2353.95 1558.89 2358.59 1555.27 2360.53 1553.6 2366.79 1548.15 2370.88 1546.37 2379.51 1544.59 2383.23 1543.83 2389.05 1542.65 2392.24 1543.35 2393.64 1543.67 2395.79 1545.51 2396.93 1546.48 2402.05 1551.12 2407.39 1560.35 2408.14 1570.11 2408.36 1572.59 2407.06 1576.53 2408.14 1578.8 2408.63 1579.82 2412.73 1581.01 2414.67 1581.93 2427.18 1587.65 2436.99 1591.91 2448.58 1597.2 2452.03 1598.76 2458.4 1603.08 2462.6 1602.81 2464.81 1602.65 2468.48 1600.11 2471.01 1598.76 2479.21 1594.39 2488.32 1590.18 2498.08 1588.51 2495.93 1592.5 2493.55 1596.82 2490.8 1601.51ZM2557.67 1552.63C2586.84 1569.9 2618.22 1587.97 2648.47 1605.51 2651 1606.96 2660.71 1611.28 2661.52 1613.27 2663.78 1619.1 2656.23 1627.52 2654.67 1629.79 2652.73 1632.59 2647.34 1641.39 2643.18 1641.6 2642.59 1641.6 2639.41 1639.12 2637.25 1637.88 2608.67 1621.15 2580.91 1605.45 2552.38 1588.73 2549.2 1586.84 2540.3 1582.84 2539.66 1580.63 2539.17 1579.07 2540.14 1575.45 2540.9 1573.46 2542.08 1570.38 2544.72 1566.33 2547.74 1561.96 2549.9 1558.83 2554.16 1551.93 2557.07 1552.31 2557.45 1552.36 2557.45 1552.52 2557.67 1552.63ZM2519.76 1766.4C2517.49 1769.53 2514.31 1772.66 2513.23 1775.41 2512.86 1776.33 2512.91 1780.7 2511.99 1781.34 2510.48 1782.32 2504.72 1779.83 2503.31 1779.46 2484.93 1775.09 2469.67 1771.31 2451.06 1767.96 2449.61 1767.69 2442.71 1766.88 2442.06 1766.08 2441.68 1765.64 2442.87 1763.81 2442.98 1763.59 2446.26 1757.6 2451.66 1748.65 2454.19 1744.33 2480.18 1699.39 2505.31 1655.85 2530.38 1611.76 2534.53 1604.43 2538.69 1596.82 2543.11 1589.7 2543.7 1588.73 2544.24 1589.48 2544.67 1589.7 2568.77 1601.84 2591.26 1617.54 2615.9 1630.43 2584.63 1674.3 2551.57 1721.99 2519.76 1766.4ZM2424.91 1791.6C2429.71 1786.47 2432.62 1781.4 2436.13 1775.41 2437.48 1773.14 2438.77 1769.04 2441.09 1769.8 2446.7 1771.63 2452.68 1772.01 2459.1 1773.2 2473.71 1776 2487.57 1779.94 2502.34 1783.45 2504.61 1783.99 2510.32 1785.01 2510.75 1785.93 2511.02 1786.52 2509.19 1791.92 2508.87 1793.7 2508.38 1796.56 2508.38 1800.01 2507.63 1802.12 2506.55 1804.98 2502.99 1808.21 2500.78 1811.13 2495.71 1817.87 2492.58 1822.78 2487.08 1829.47 2485.74 1831.14 2481.1 1837.3 2479.32 1837.89 2476.35 1838.81 2470.8 1837.89 2466.86 1837.89 2457.7 1837.89 2451.44 1837.89 2442 1837.89 2440.06 1837.89 2431.06 1839.02 2429.55 1837.89 2429.33 1837.73 2428.74 1834.17 2428.31 1832.6 2424.32 1819 2417.42 1813.45 2405.02 1808.32 2413.32 1804.17 2418.55 1798.39 2424.91 1791.6ZM2502.02 1841.07C2500.73 1842.85 2495.17 1846.14 2492.37 1846.68 2487.95 1847.55 2481.91 1846.68 2476.51 1846.68 2443.78 1846.68 2412.35 1846.68 2379.51 1846.68 2374.98 1846.68 2365.01 1847.28 2364.25 1846.36 2362.31 1843.99 2366.14 1836.7 2367.38 1834.54 2372.45 1825.7 2376.87 1822.46 2385.71 1817.44 2389.92 1815.07 2394.93 1811.45 2400 1811.83 2407.39 1812.37 2415.1 1818.9 2418.33 1823.32 2421.41 1827.58 2423.62 1835.3 2425.18 1839.83 2425.61 1841.13 2425.24 1840.91 2425.83 1841.4 2427.72 1842.96 2436.02 1842.31 2439.79 1842.31 2451.12 1842.31 2458.72 1842.31 2469.94 1842.31 2474.03 1842.31 2482.61 1843.18 2484.55 1841.67 2485.41 1841.02 2485.2 1839.29 2485.79 1838.27 2486.87 1836.32 2489.62 1834.49 2491.4 1832.33 2495.98 1826.94 2499.97 1820.79 2503.85 1815.55 2504.5 1814.63 2505.85 1812.58 2506.33 1813.39 2503.85 1821.43 2506.39 1835.14 2502.02 1841.07Z" fill-rule="evenodd"/><path d="M3018.47 1267.02C3018.03 1266.9 3015.3 1267.42 3015.03 1269.33 3014.54 1272.63 3020.1 1274.94 3023.21 1275 3026.26 1275.06 3031.5 1272.22 3027.63 1270.02 3025.66 1268.87 3024.52 1270.95 3022.88 1270.72 3019.12 1269.97 3020.81 1267.65 3018.47 1267.02Z" fill-rule="evenodd"/><path d="M3012 1266C3003.99 1266 2997.4 1259.71 2997.01 1251.72 2996.85 1247.69 2998.22 1243.89 3000.91 1240.91 3003.6 1237.93 3007.28 1236.22 3011.29 1236L3012 1236C3020.02 1236 3026.6 1242.29 3026.99 1250.28 3027.15 1254.31 3025.78 1258.11 3023.09 1261.09 3020.4 1264.07 3016.72 1265.78 3012.71 1266L3012 1266Z" fill="#1A1A1A" fill-rule="evenodd"/><path d="M3012 1237.55C3019.18 1237.55 3025.17 1243.19 3025.5 1250.46 3025.82 1257.94 3020.1 1264.23 3012.65 1264.61 3012.43 1264.61 3012.22 1264.61 3012 1264.61 3004.82 1264.61 2998.83 1258.97 2998.5 1251.71 2998.13 1244.22 3003.9 1237.93 3011.35 1237.55 3011.57 1237.55 3011.78 1237.55 3012 1237.55L3012 1237.55ZM3012 1235C3011.73 1235 3011.51 1235 3011.24 1235 3006.98 1235.22 3003.04 1237.06 3000.18 1240.21 2997.32 1243.35 2995.8 1247.47 2996.02 1251.76 2996.4 1260.33 3003.42 1267 3012 1267 3012.27 1267 3012.49 1267 3012.76 1267 3017.02 1266.78 3020.96 1264.94 3023.82 1261.79 3026.68 1258.65 3028.2 1254.53 3027.98 1250.24 3027.55 1241.73 3020.53 1235 3012 1235L3012 1235Z" fill-rule="evenodd"/><path d="M3026.59 1238C3026.59 1238 3032.83 1247.98 3029.36 1251.06 3025.89 1254.09 3018 1257.4 3018 1257.4L3022.32 1266 3027.55 1266 3034 1246.93 3026.59 1238Z" fill="#FFFFFF" fill-rule="evenodd"/><path d="M3045 1274C3036.99 1274 3030.4 1267.92 3030.02 1260.19 3029.63 1252.2 3036.05 1245.37 3044.29 1245L3045 1245C3053.02 1245 3059.6 1251.08 3059.99 1258.81 3060.15 1262.7 3058.78 1266.38 3056.09 1269.26 3053.4 1272.13 3049.72 1273.79 3045.72 1274L3045 1274Z" fill="#1A1A1A" fill-rule="evenodd"/><path d="M3045 1245.49C3052.18 1245.49 3058.17 1251.14 3058.5 1258.4 3058.82 1265.89 3053.1 1272.18 3045.65 1272.56 3045.43 1272.56 3045.22 1272.56 3045 1272.56 3037.82 1272.56 3031.88 1266.92 3031.5 1259.71 3031.18 1252.22 3036.9 1245.93 3044.35 1245.55 3044.57 1245.49 3044.78 1245.49 3045 1245.49L3045 1245.49ZM3045 1243C3044.73 1243 3044.51 1243 3044.24 1243 3035.44 1243.43 3028.59 1250.92 3029.02 1259.76 3029.4 1268.33 3036.42 1275 3045 1275 3045.27 1275 3045.49 1275 3045.76 1275 3050.02 1274.78 3053.96 1272.94 3056.82 1269.79 3059.68 1266.65 3061.2 1262.53 3060.98 1258.24 3060.6 1249.73 3053.58 1243 3045 1243L3045 1243Z" fill-rule="evenodd"/><path d="M3022.01 1266C3022.23 1266 3022.44 1266 3022.65 1266 3026.33 1263.6 3019.35 1260.61 3020.68 1257.89 3021.05 1257.13 3023.66 1256.85 3025.42 1255.93 3026.17 1255.55 3028.4 1253.86 3028.78 1253.42 3034.1 1247.54 3028.94 1233.83 3022.92 1233.06 3022.12 1232.95 3018.07 1232.74 3018.6 1234.91 3018.82 1235.78 3020.57 1234.86 3022.92 1236.82 3025.26 1238.78 3026.81 1244.99 3026.27 1248.74 3025.53 1254.13 3017.06 1252.83 3016.15 1256.91 3015.35 1260.61 3017.75 1264.69 3022.01 1266Z" fill-rule="evenodd"/><path d="M3045.85 1239.06C3044.67 1239.16 3036.86 1241.47 3038.14 1243.66 3039.27 1245.64 3046.12 1242.48 3047.08 1242.43 3054.2 1242.16 3055.17 1247.57 3059.08 1247.99 3059.29 1247.99 3060.58 1248.1 3060.9 1247.35 3061.27 1246.55 3060.63 1244.84 3058.86 1243.45 3053.94 1239.7 3048.48 1238.74 3045.85 1239.06Z" fill-rule="evenodd"/><path d="M2356.25 1102.95C2341.25 1102.95 2329 1090.75 2329 1075.69L2329 951.252C2329 936.25 2341.2 924 2356.25 924L2664.75 924C2679.75 924 2692 936.196 2692 951.252L2692 1075.75C2692 1090.75 2679.8 1103 2664.75 1103L2356.25 1103Z" fill="#FFFFFF" fill-rule="evenodd" fill-opacity="0.411765"/><path d="M2664.47 926.625C2678.21 926.625 2689.31 937.756 2689.31 951.415L2689.31 1075.48C2689.31 1089.19 2678.16 1100.27 2664.47 1100.27L2356.53 1100.27C2342.79 1100.27 2331.69 1089.14 2331.69 1075.48L2331.69 951.469C2331.69 937.756 2342.84 926.678 2356.53 926.678L2664.47 926.678 2664.47 926.625ZM2664.47 922 2356.53 922C2340.26 922 2327 935.229 2327 951.469L2327 1075.53C2327 1091.77 2340.26 1105 2356.53 1105L2664.47 1105C2680.74 1105 2694 1091.77 2694 1075.53L2694 951.469C2693.95 935.175 2680.74 922 2664.47 922L2664.47 922Z" fill-rule="evenodd"/><path d="M2679.72 1229 2646.28 1229C2645.01 1229 2644 1228.12 2644 1227 2644 1225.88 2645.01 1225 2646.28 1225L2679.72 1225C2680.99 1225 2682 1225.88 2682 1227 2682 1228.12 2680.99 1229 2679.72 1229Z" fill-rule="evenodd"/><path d="M2745.7 1229 2691.3 1229C2690.02 1229 2689 1228.12 2689 1227 2689 1225.88 2690.02 1225 2691.3 1225L2745.7 1225C2746.98 1225 2748 1225.88 2748 1227 2748 1228.12 2746.98 1229 2745.7 1229Z" fill-rule="evenodd"/><path d="M2823.67 1229 2759.33 1229C2758.03 1229 2757 1228.12 2757 1227 2757 1225.88 2758.03 1225 2759.33 1225L2823.67 1225C2824.97 1225 2826 1225.88 2826 1227 2826 1228.12 2824.97 1229 2823.67 1229Z" fill-rule="evenodd"/><path d="M2823.68 1252 2647.32 1252C2646.03 1252 2645 1250.9 2645 1249.5 2645 1248.1 2646.03 1247 2647.32 1247L2823.68 1247C2824.98 1247 2826 1248.1 2826 1249.5 2826 1250.9 2824.98 1252 2823.68 1252Z" fill-rule="evenodd"/><path d="M2823.68 1183 2647.32 1183C2646.03 1183 2645 1181.9 2645 1180.5 2645 1179.1 2646.03 1178 2647.32 1178L2823.68 1178C2824.98 1178 2826 1179.1 2826 1180.5 2826 1181.9 2824.98 1183 2823.68 1183Z" fill-rule="evenodd"/><path d="M2823.68 1205 2647.32 1205C2646.03 1205 2645 1203.9 2645 1202.5 2645 1201.1 2646.03 1200 2647.32 1200L2823.68 1200C2824.98 1200 2826 1201.1 2826 1202.5 2826 1203.84 2824.98 1205 2823.68 1205Z" fill-rule="evenodd"/><path d="M2729.67 1138 2649.33 1138C2648.03 1138 2647 1136.9 2647 1135.5 2647 1134.1 2648.03 1133 2649.33 1133L2729.67 1133C2730.97 1133 2732 1134.1 2732 1135.5 2732 1136.9 2730.92 1138 2729.67 1138Z" fill-rule="evenodd"/><path d="M2823.7 1138 2744.3 1138C2743.02 1138 2742 1136.9 2742 1135.5 2742 1134.1 2743.02 1133 2744.3 1133L2823.7 1133C2824.98 1133 2826 1134.1 2826 1135.5 2826 1136.9 2824.98 1138 2823.7 1138Z" fill-rule="evenodd"/><path d="M2823.68 1160 2647.32 1160C2646.03 1160 2645 1158.9 2645 1157.5 2645 1156.1 2646.03 1155 2647.32 1155L2823.68 1155C2824.98 1155 2826 1156.1 2826 1157.5 2826 1158.9 2824.98 1160 2823.68 1160Z" fill-rule="evenodd"/><path d="M2823.68 1049 2647.32 1049C2646.03 1049 2645 1048.12 2645 1047 2645 1045.88 2646.03 1045 2647.32 1045L2823.68 1045C2824.98 1045 2826 1045.88 2826 1047 2826 1048.12 2824.98 1049 2823.68 1049Z" fill-rule="evenodd"/><path d="M2823.68 1070 2647.32 1070C2646.03 1070 2645 1068.9 2645 1067.5 2645 1066.1 2646.03 1065 2647.32 1065L2823.68 1065C2824.98 1065 2826 1066.1 2826 1067.5 2826 1068.84 2824.98 1070 2823.68 1070Z" fill-rule="evenodd"/><path d="M2823.68 1091 2647.32 1091C2646.03 1091 2645 1090.12 2645 1089 2645 1087.88 2646.03 1087 2647.32 1087L2823.68 1087C2824.98 1087 2826 1087.88 2826 1089 2826 1090.12 2824.98 1091 2823.68 1091Z" fill-rule="evenodd"/><path d="M2823.68 1114 2647.32 1114C2646.03 1114 2645 1112.9 2645 1111.5 2645 1110.1 2646.03 1109 2647.32 1109L2823.68 1109C2824.98 1109 2826 1110.1 2826 1111.5 2826 1112.9 2824.98 1114 2823.68 1114Z" fill-rule="evenodd"/><path d="M2915.06 1044.72C2918.53 1044.72 2921.29 1047.54 2921.29 1050.96L2921.29 1142.04C2921.29 1145.51 2918.48 1148.28 2915.06 1148.28L2847.94 1148.28C2844.47 1148.28 2841.71 1145.46 2841.71 1142.04L2841.71 1050.96C2841.71 1047.49 2844.52 1044.72 2847.94 1044.72L2915.06 1044.72 2915.06 1044.72ZM2915.06 1040 2847.94 1040C2841.93 1040 2837 1044.94 2837 1050.96L2837 1142.04C2837 1148.06 2841.93 1153 2847.94 1153L2915.06 1153C2921.07 1153 2926 1148.06 2926 1142.04L2926 1050.96C2925.95 1044.94 2921.07 1040 2915.06 1040L2915.06 1040Z" fill-rule="evenodd"/><path d="M2620.09 1044.7C2623.55 1044.7 2626.3 1047.51 2626.3 1050.91L2626.3 1266.09C2626.3 1269.55 2623.49 1272.3 2620.09 1272.3L2493.91 1272.3C2490.45 1272.3 2487.7 1269.49 2487.7 1266.09L2487.7 1050.91C2487.7 1047.45 2490.51 1044.7 2493.91 1044.7L2620.09 1044.7 2620.09 1044.7ZM2620.09 1040 2493.91 1040C2487.92 1040 2483 1044.91 2483 1050.91L2483 1266.09C2483 1272.09 2487.92 1277 2493.91 1277L2620.09 1277C2626.08 1277 2631 1272.09 2631 1266.09L2631 1050.91C2631 1044.91 2626.08 1040 2620.09 1040L2620.09 1040Z" fill-rule="evenodd"/><path d="M2357.58 1083C2352.83 1083 2349 1079.16 2349 1074.4L2349 983.603C2349 978.896 2352.83 975 2357.58 975L2424.48 975C2429.17 975 2433 978.842 2433 983.603L2433 1074.4C2433 1079.1 2429.17 1083 2424.48 1083L2357.58 1083Z" fill="#FFFFFF" fill-rule="evenodd"/><path d="M2424.06 977.68C2427.53 977.68 2430.29 980.477 2430.29 983.866L2430.29 1074.13C2430.29 1077.58 2427.48 1080.32 2424.06 1080.32L2356.94 1080.32C2353.47 1080.32 2350.71 1077.52 2350.71 1074.13L2350.71 983.866C2350.71 980.424 2353.53 977.68 2356.94 977.68L2424.06 977.68 2424.06 977.68ZM2424.06 973 2356.94 973C2350.93 973 2346 977.895 2346 983.866L2346 1074.13C2346 1080.1 2350.93 1085 2356.94 1085L2424.06 1085C2430.07 1085 2435 1080.1 2435 1074.13L2435 983.866C2435 977.895 2430.13 973 2424.06 973L2424.06 973Z" fill-rule="evenodd"/><path d="M2492.27 1294C2477.26 1294 2465 1281.83 2465 1266.81L2465 1017.19C2465 1002.22 2477.2 990 2492.27 990L2912.73 990C2927.74 990 2940 1002.17 2940 1017.19L2940 1266.81C2940 1281.78 2927.8 1294 2912.73 1294L2492.27 1294Z" fill="#FFFFFF" fill-rule="evenodd" fill-opacity="0.501961"/><path d="M2912.45 991.704C2926.2 991.704 2937.31 1002.9 2937.31 1016.63L2937.31 1267.37C2937.31 1281.16 2926.15 1292.3 2912.45 1292.3L2492.55 1292.3C2478.8 1292.3 2467.69 1281.1 2467.69 1267.37L2467.69 1016.63C2467.69 1002.84 2478.86 991.704 2492.55 991.704L2912.45 991.704 2912.45 991.704ZM2912.45 987 2492.55 987C2476.27 987 2463 1000.3 2463 1016.63L2463 1267.37C2463 1283.7 2476.27 1297 2492.55 1297L2912.45 1297C2928.73 1297 2942 1283.7 2942 1267.37L2942 1016.63C2942 1000.3 2928.73 987 2912.45 987L2912.45 987Z" fill-rule="evenodd"/><path d="M3471.68 1854 2214.32 1854C2213.03 1854 2212 1852.9 2212 1851.5 2212 1850.1 2213.03 1849 2214.32 1849L3471.68 1849C3472.98 1849 3474 1850.1 3474 1851.5 3474 1852.9 3472.98 1854 3471.68 1854Z" fill-rule="evenodd"/><path d="M2327.5 951.5 2692.67 951.5" stroke="#0D0D0D" stroke-width="4.58333" stroke-miterlimit="8" fill="none" fill-rule="evenodd"/></g></svg>