<svg width="1118" height="984" xmlns="http://www.w3.org/2000/svg" xmlns:xlink="http://www.w3.org/1999/xlink" overflow="hidden"><defs><clipPath id="clip0"><rect x="2361" y="870" width="1118" height="984"/></clipPath></defs><g clip-path="url(#clip0)" transform="translate(-2361 -870)"><path d="M3479 870 3479 1152.43 2721.99 1276.83 3054.44 1852 2732.46 1852 2379.7 1241.68C2356.8 1202.05 2354.81 1153.77 2374.4 1112.4 2393.98 1071.03 2432.63 1041.95 2477.79 1034.51Z" fill="#FFC000" fill-rule="evenodd"/><path d="M2970.39 1804.96C2959.17 1804.96 2950 1795.81 2950 1784.53L2950 1090.43C2950 1079.19 2959.13 1070 2970.39 1070L3354.61 1070C3365.83 1070 3375 1079.15 3375 1090.43L3375 1784.57C3375 1795.81 3365.87 1805 3354.61 1805L2970.39 1805Z" fill="#FFFFFF" fill-rule="evenodd"/><path d="M3354.84 1072.52C3365.15 1072.52 3373.48 1080.89 3373.48 1091.16L3373.48 1784.84C3373.48 1795.15 3365.11 1803.48 3354.84 1803.48L2970.16 1803.48C2959.85 1803.48 2951.52 1795.11 2951.52 1784.84L2951.52 1091.16C2951.52 1080.85 2959.89 1072.52 2970.16 1072.52L3354.84 1072.52 3354.84 1072.52ZM3354.84 1069 2970.16 1069C2957.95 1069 2948 1078.95 2948 1091.16L2948 1784.84C2948 1797.05 2957.95 1807 2970.16 1807L3354.84 1807C3367.05 1807 3377 1797.05 3377 1784.84L3377 1091.16C3377 1078.95 3367.05 1069 3354.84 1069L3354.84 1069Z" fill-rule="evenodd"/><path d="M3354.84 1072.52C3365.15 1072.52 3373.48 1080.89 3373.48 1091.16L3373.48 1784.84C3373.48 1795.15 3365.11 1803.48 3354.84 1803.48L2970.16 1803.48C2959.85 1803.48 2951.52 1795.11 2951.52 1784.84L2951.52 1091.16C2951.52 1080.85 2959.89 1072.52 2970.16 1072.52L3354.84 1072.52 3354.84 1072.52ZM3354.84 1069 2970.16 1069C2957.95 1069 2948 1078.95 2948 1091.16L2948 1784.84C2948 1797.05 2957.95 1807 2970.16 1807L3354.84 1807C3367.05 1807 3377 1797.05 3377 1784.84L3377 1091.16C3377 1078.95 3367.05 1069 3354.84 1069L3354.84 1069Z" fill-rule="evenodd"/><path d="M2991.4 1778C2980.17 1778 2971 1768.85 2971 1757.56L2971 1136.44C2971 1125.19 2980.13 1116 2991.4 1116L3099.04 1116C3099.97 1116 3100.74 1116.73 3100.78 1117.66 3101.27 1127.45 3109.34 1135.14 3119.16 1135.14L3213.52 1135.14C3223.33 1135.14 3231.41 1127.45 3231.89 1117.66 3231.93 1116.73 3232.7 1116 3233.63 1116L3333.6 1116C3344.83 1116 3354 1125.15 3354 1136.44L3354 1757.56C3354 1768.81 3344.87 1778 3333.6 1778L2991.4 1778Z" fill="#FFFFFF" fill-rule="evenodd"/><path d="M3333.84 1118.52C3344.15 1118.52 3352.48 1126.89 3352.48 1137.16L3352.48 1757.84C3352.48 1768.15 3344.11 1776.48 3333.84 1776.48L2991.17 1776.48C2980.85 1776.48 2972.52 1768.11 2972.52 1757.84L2972.52 1137.16C2972.52 1126.85 2980.89 1118.52 2991.17 1118.52L3098.96 1118.52C3099.48 1129.16 3108.3 1137.65 3119.1 1137.65L3213.59 1137.65C3224.38 1137.65 3233.2 1129.2 3233.73 1118.52L3333.84 1118.52 3333.84 1118.52ZM3333.84 1115 3233.73 1115C3231.87 1115 3230.33 1116.46 3230.25 1118.32 3229.8 1127.17 3222.48 1134.13 3213.59 1134.13L3119.1 1134.13C3110.2 1134.13 3102.88 1127.17 3102.44 1118.32 3102.35 1116.46 3100.82 1115 3098.96 1115L2991.17 1115C2978.95 1115 2969 1124.95 2969 1137.16L2969 1757.84C2969 1770.05 2978.95 1780 2991.17 1780L3333.84 1780C3346.05 1780 3356 1770.05 3356 1757.84L3356 1137.16C3356 1124.95 3346.05 1115 3333.84 1115L3333.84 1115Z" fill-rule="evenodd"/><path d="M3262.48 1716C3262.19 1716 3261.91 1715.92 3261.66 1715.8L3258.99 1714.46C3258.37 1714.13 3258 1713.53 3258 1712.84L3259.03 1670.48C3258.49 1666.42 3258.08 1651.09 3267.46 1627.76 3277.21 1603.58 3302.13 1586.05 3303.2 1585.32 3303.53 1585.12 3303.86 1585 3304.23 1585 3304.6 1585 3304.97 1585.12 3305.25 1585.32 3305.87 1585.77 3306.16 1586.54 3305.91 1587.23 3305.83 1587.56 3296.17 1620.58 3289.5 1637.01 3281.2 1657.42 3269.35 1669.26 3266.6 1671.82L3264.21 1714.3C3264.17 1714.9 3263.84 1715.43 3263.31 1715.72 3263.1 1715.92 3262.77 1716 3262.48 1716Z" fill="#FFFFFF" fill-rule="evenodd"/><path d="M3303.57 1586.52C3303.57 1586.52 3294.24 1619.46 3287.7 1635.95 3278.77 1658.47 3265.41 1670.47 3265.41 1670.47L3263.06 1713.52 3260.47 1712.19 3261.47 1669.99C3261.47 1669.99 3259.19 1654.35 3269.52 1628.03 3278.93 1604.1 3303.57 1586.52 3303.57 1586.52L3303.57 1586.52ZM3303.57 1583C3302.77 1583 3302.1 1583.24 3301.54 1583.65 3300.06 1584.7 3275.9 1602.32 3266.33 1626.7 3257.68 1648.77 3257.32 1664.37 3258.08 1669.87 3258 1669.87 3257 1712.07 3257 1712.07 3256.96 1713.4 3257.68 1714.66 3258.88 1715.26L3261.47 1716.6C3261.95 1716.84 3262.5 1717 3263.06 1717 3263.66 1717 3264.26 1716.84 3264.78 1716.56 3265.77 1715.95 3266.45 1714.9 3266.49 1713.73L3268.8 1672.09C3272.27 1668.66 3283.16 1656.81 3290.89 1637.29 3297.19 1621.4 3305.88 1591.04 3306.8 1587.77 3306.96 1587.41 3307 1587 3307 1586.56 3307.04 1584.58 3305.48 1583 3303.57 1583 3303.57 1583 3303.57 1583 3303.57 1583Z" fill-rule="evenodd"/><path d="M3248.6 1764C3248.16 1764 3247.76 1763.84 3247.43 1763.56 3247.07 1763.23 3246.87 1762.75 3246.87 1762.26L3247.11 1623.77C3246.1 1619.57 3231.04 1556.51 3233.21 1490.42 3235.83 1411.63 3272.77 1337.74 3273.14 1336.97 3273.42 1336.36 3274.02 1336 3274.71 1336 3275.43 1336.04 3276.04 1336.44 3276.32 1337.05 3276.92 1338.51 3291.34 1373.39 3293.88 1464.51 3296.34 1551.98 3260.24 1617.63 3256.9 1623.53L3256.9 1761.53C3256.9 1762.42 3256.22 1763.19 3255.33 1763.27 3255.29 1763.31 3248.68 1764 3248.6 1764Z" fill="#FFFFFF" fill-rule="evenodd"/><path d="M3274.79 1337.52C3274.79 1337.52 3289.78 1372.57 3292.38 1464.48 3294.98 1556.44 3255.08 1623.17 3255.08 1623.17L3255.08 1761.83 3248.53 1762.52 3248.78 1623.62C3248.78 1623.62 3232.48 1559.07 3234.76 1490.38 3237.4 1410.98 3274.79 1337.52 3274.79 1337.52L3274.79 1337.52ZM3274.79 1334C3273.45 1334 3272.27 1334.73 3271.66 1335.9 3271.29 1336.63 3233.86 1410.98 3231.22 1490.26 3229.03 1555.75 3243.82 1618.24 3245.24 1624.06L3245 1762.52C3245 1763.53 3245.4 1764.46 3246.18 1765.11 3246.83 1765.68 3247.68 1766 3248.53 1766 3248.66 1766 3248.78 1766 3248.9 1766L3255.44 1765.31C3257.23 1765.11 3258.57 1763.61 3258.57 1761.83L3258.57 1624.1C3263.2 1615.93 3298.32 1550.69 3295.88 1464.4 3293.32 1372.85 3278.65 1337.6 3278.04 1336.15 3277.51 1334.89 3276.29 1334.08 3274.91 1334 3274.79 1334 3274.79 1334 3274.79 1334Z" fill-rule="evenodd"/><path d="M3247.76 1785C3247.32 1785 3246.91 1784.84 3246.58 1784.55 3246.22 1784.23 3246.01 1783.78 3246.01 1783.34L3241.3 1660C3240.12 1656.88 3228.94 1627.11 3217.96 1593.65 3206.37 1558.28 3201.21 1483.1 3201 1479.9 3200.96 1479.05 3201.49 1478.32 3202.3 1478.08 3202.47 1478.04 3202.63 1478 3202.75 1478 3203.4 1478 3204.01 1478.36 3204.34 1478.97 3210.39 1486.63 3241.38 1528.19 3253.21 1585.14 3258.62 1611.19 3250.08 1657.48 3249.67 1659.47L3253.74 1782.93C3253.78 1783.87 3253.05 1784.68 3252.07 1784.76 3252.07 1784.76 3247.76 1785 3247.76 1785Z" fill="#FFFFFF" fill-rule="evenodd"/><path d="M3202.48 1479.48C3202.56 1479.64 3238.1 1523.56 3250.75 1585.04 3256.11 1611 3247.25 1658.56 3247.25 1658.56L3251.24 1782.24 3247.04 1782.48 3242.33 1659.05C3242.33 1659.05 3230.72 1628.15 3219.16 1592.6 3207.67 1557.13 3202.52 1479.72 3202.48 1479.48L3202.48 1479.48ZM3202.48 1476C3202.15 1476 3201.87 1476.04 3201.55 1476.12 3199.94 1476.57 3198.89 1478.06 3199.01 1479.72 3199.21 1482.92 3204.37 1558.18 3215.89 1593.69 3226.53 1626.33 3237.33 1655.45 3238.94 1659.74L3243.62 1782.6C3243.66 1783.53 3244.06 1784.42 3244.75 1785.07 3245.39 1785.68 3246.24 1786 3247.08 1786 3247.29 1786 3251.48 1785.76 3251.48 1785.76 3253.37 1785.64 3254.82 1784.06 3254.78 1782.16L3250.79 1658.89C3251.68 1653.99 3259.42 1609.79 3254.22 1584.39 3242.41 1527.16 3211.5 1485.34 3205.42 1477.54 3205.54 1477.7 3205.62 1477.9 3205.66 1477.94 3204.97 1476.73 3203.76 1476 3202.48 1476L3202.48 1476Z" fill-rule="evenodd"/><path d="M3261.96 1766C3261.84 1766 3261.68 1766 3261.55 1765.96L3256.34 1764.67C3255.53 1764.46 3255 1763.74 3255 1762.93L3257.63 1653.9C3257.59 1653.57 3253.79 1604.31 3264.43 1559.82 3275.07 1515.28 3329.45 1429.45 3331.75 1425.81 3332.08 1425.28 3332.64 1425 3333.25 1425 3333.49 1425 3333.69 1425.04 3333.94 1425.12 3334.75 1425.44 3335.15 1426.29 3334.95 1427.14 3334.75 1428.03 3313.34 1517.75 3299.06 1556.87 3286.07 1592.35 3268.27 1650.91 3267.06 1654.99L3263.78 1764.3C3263.78 1764.83 3263.5 1765.31 3263.09 1765.64 3262.69 1765.88 3262.32 1766 3261.96 1766Z" fill="#FFFFFF" fill-rule="evenodd"/><path d="M3332.5 1426.52C3332.5 1426.52 3311.22 1516.68 3296.85 1556.21 3283.38 1593.36 3264.91 1654.78 3264.91 1654.78L3261.65 1764.48 3256.46 1763.18 3259.08 1654.01C3259.08 1654.01 3255.13 1604.97 3265.8 1560.17 3276.42 1515.34 3332.5 1426.52 3332.5 1426.52L3332.5 1426.52ZM3332.5 1423C3332.38 1423 3332.26 1423 3332.18 1423 3331.61 1423.04 3331.05 1423.24 3330.61 1423.57 3330.29 1423.77 3330.01 1424.05 3329.76 1424.34 3329.68 1424.46 3329.6 1424.54 3329.56 1424.66 3326.87 1428.95 3273.04 1514.61 3262.42 1559.32 3252.12 1602.74 3255.37 1650.65 3255.62 1654.09L3253 1763.1C3252.96 1764.76 3254.05 1766.18 3255.66 1766.58L3260.85 1767.88C3261.13 1767.96 3261.41 1768 3261.69 1768 3262.46 1768 3263.18 1767.76 3263.78 1767.27 3264.63 1766.62 3265.11 1765.65 3265.15 1764.6L3268.41 1655.35C3270.1 1649.72 3287.48 1592.34 3300.15 1557.38 3314.03 1519.14 3334.55 1432.95 3335.84 1427.57 3335.96 1427.25 3336 1426.88 3336 1426.52 3336 1424.62 3334.47 1423.04 3332.58 1423 3332.5 1423 3332.5 1423 3332.5 1423Z" fill-rule="evenodd"/><path d="M3238.49 1714C3238.17 1714 3237.85 1713.92 3237.6 1713.76 3237.12 1713.47 3236.79 1712.95 3236.75 1712.38L3233.32 1662.17C3228.39 1658.29 3212.82 1643.03 3206.84 1624.7 3199.4 1601.96 3186.18 1551.67 3186.06 1551.18 3185.86 1550.42 3186.18 1549.65 3186.87 1549.24 3187.15 1549.08 3187.43 1549 3187.76 1549 3188.2 1549 3188.65 1549.16 3188.97 1549.49 3190.1 1550.58 3217.31 1576.68 3228.99 1602.21 3242.41 1631.46 3239.91 1660.83 3239.79 1662.09L3243.99 1710.56C3244.07 1711.29 3243.63 1712.02 3242.94 1712.3L3239.22 1713.92C3238.98 1713.96 3238.74 1714 3238.49 1714Z" fill="#FFFFFF" fill-rule="evenodd"/><path d="M3187.54 1551.47C3187.54 1551.47 3215.66 1578.04 3227.47 1603.45 3240.94 1632.52 3238.21 1662.24 3238.21 1662.24L3242.45 1710.84 3238.7 1712.45 3235.2 1661.76C3235 1661.72 3215.5 1645.79 3208.5 1624.62 3200.89 1601.8 3187.54 1551.47 3187.54 1551.47L3187.54 1551.47ZM3187.54 1548C3186.92 1548 3186.31 1548.16 3185.74 1548.48 3184.4 1549.29 3183.71 1550.86 3184.12 1552.36 3184.24 1552.84 3197.55 1603.05 3205.08 1625.75 3210.86 1643.17 3225.27 1658.41 3231.74 1663.45L3235.16 1712.73C3235.24 1713.86 3235.85 1714.87 3236.87 1715.48 3237.44 1715.8 3238.05 1716 3238.7 1716 3239.19 1716 3239.68 1715.92 3240.13 1715.72L3243.87 1714.1C3245.26 1713.5 3246.11 1712.09 3245.99 1710.6L3241.8 1662.29C3242.08 1658.78 3243.83 1630.35 3230.72 1602.04 3218.8 1576.31 3191.2 1550.06 3190.02 1548.97 3189.29 1548.32 3188.43 1548 3187.54 1548L3187.54 1548Z" fill-rule="evenodd"/><path d="M3235.65 1849C3224.37 1849 3215.2 1837.72 3215.2 1823.83L3207 1706.89C3207 1701.94 3210.94 1698 3215.77 1698L3282.23 1698C3287.06 1698 3291 1701.94 3291 1706.77L3283.05 1823.96C3283.05 1837.72 3273.88 1849 3262.59 1849L3235.65 1849Z" fill="#FFFFFF" fill-rule="evenodd"/><path d="M3282.52 1700.48C3286.39 1700.48 3289.49 1703.6 3289.49 1707.48L3281.59 1824.17C3281.59 1837.08 3273.29 1847.52 3263.01 1847.52L3236.24 1847.52C3225.96 1847.52 3217.65 1837.08 3217.65 1824.17L3209.51 1707.48C3209.51 1703.6 3212.65 1700.48 3216.48 1700.48L3282.52 1700.48 3282.52 1700.48ZM3282.52 1697 3216.48 1697C3210.72 1697 3206 1701.69 3206 1707.48 3206 1707.56 3206 1707.64 3206 1707.72L3214.14 1824.3C3214.18 1839.02 3224.06 1851 3236.24 1851L3263.01 1851C3275.14 1851 3285.02 1839.02 3285.1 1824.3L3293 1707.72C3293 1707.64 3293 1707.56 3293 1707.48 3292.96 1701.69 3288.28 1697 3282.52 1697L3282.52 1697Z" fill-rule="evenodd"/><path d="M3016.56 1678 3006.78 1678C3006.3 1678 3005.93 1678.28 3006.01 1678.69L3038.43 1847.31C3038.51 1847.68 3038.95 1848 3039.44 1848L3049.22 1848C3049.7 1848 3050.07 1847.72 3049.99 1847.31L3017.57 1678.69C3017.49 1678.28 3017.05 1678 3016.56 1678Z" fill="#FFFFFF" fill-rule="evenodd"/><path d="M2899.6 1680 2909.23 1680C2909.71 1680 2910.07 1680.28 2909.99 1680.69L2877.39 1847.31C2877.31 1847.68 2876.88 1848 2876.4 1848L2866.77 1848C2866.29 1848 2865.93 1847.72 2866.01 1847.31L2898.6 1680.69C2898.68 1680.28 2899.12 1680 2899.6 1680Z" fill="#FFFFFF" fill-rule="evenodd"/><path d="M3116.55 1678 3106.77 1678C3106.29 1678 3105.96 1678.28 3106 1678.65L3138.42 1847.31C3138.51 1847.68 3138.95 1848 3139.44 1848L3149.22 1848C3149.71 1848 3150.07 1847.72 3149.99 1847.31L3117.57 1678.65C3117.49 1678.28 3117.04 1678 3116.55 1678Z" fill="#FFFFFF" fill-rule="evenodd"/><path d="M2999.6 1680 3009.23 1680C3009.71 1680 3010.07 1680.28 3009.99 1680.69L2977.39 1847.31C2977.31 1847.68 2976.88 1848 2976.4 1848L2966.77 1848C2966.29 1848 2965.93 1847.72 2966.01 1847.31L2998.6 1680.69C2998.68 1680.32 2999.12 1680 2999.6 1680Z" fill="#FFFFFF" fill-rule="evenodd"/><path d="M3017.05 1677.53C3017.54 1677.53 3017.99 1677.81 3018.07 1678.22L3050.47 1847.86C3050.55 1848.23 3050.19 1848.55 3049.7 1848.55L3039.93 1848.55C3039.44 1848.55 3039 1848.27 3038.91 1847.86L3006.51 1678.22C3006.43 1677.85 3006.79 1677.53 3007.28 1677.53L3017.05 1677.53 3017.05 1677.53ZM3017.05 1674 3007.28 1674C3005.94 1674 3004.73 1674.57 3003.92 1675.54 3003.14 1676.47 3002.86 1677.69 3003.06 1678.83L3035.47 1848.47C3035.87 1850.5 3037.74 1852 3039.93 1852L3049.7 1852C3051.04 1852 3052.26 1851.43 3053.07 1850.46 3053.84 1849.53 3054.16 1848.35 3053.92 1847.17L3021.52 1677.53C3021.15 1675.5 3019.29 1674 3017.05 1674L3017.05 1674Z" fill-rule="evenodd"/><path d="M2909.68 1680.52C2910.17 1680.52 2910.53 1680.8 2910.45 1681.21L2877.16 1847.83C2877.08 1848.2 2876.63 1848.52 2876.14 1848.52L2866.31 1848.52C2865.82 1848.52 2865.45 1848.24 2865.53 1847.83L2898.82 1681.21C2898.91 1680.84 2899.35 1680.52 2899.84 1680.52L2909.68 1680.52 2909.68 1680.52ZM2909.68 1677 2899.84 1677C2897.64 1677 2895.72 1678.5 2895.36 1680.56L2862.06 1847.14C2861.86 1848.36 2862.15 1849.57 2862.92 1850.46 2863.74 1851.43 2864.96 1852 2866.31 1852L2876.14 1852C2878.38 1852 2880.26 1850.5 2880.63 1848.44L2913.92 1681.86C2914.16 1680.68 2913.84 1679.47 2913.06 1678.54 2912.29 1677.57 2911.02 1677 2909.68 1677L2909.68 1677Z" fill-rule="evenodd"/><path d="M3117.07 1677.53C3117.56 1677.53 3118 1677.81 3118.08 1678.18L3150.49 1847.78C3150.57 1848.15 3150.21 1848.47 3149.72 1848.47L3139.94 1848.47C3139.46 1848.47 3139.01 1848.19 3138.93 1847.78L3106.53 1678.18C3106.45 1677.81 3106.81 1677.53 3107.3 1677.53L3117.07 1677.53 3117.07 1677.53ZM3117.07 1674 3107.3 1674C3105.96 1674 3104.74 1674.57 3103.93 1675.54 3103.16 1676.47 3102.84 1677.65 3103.08 1678.83L3135.48 1848.47C3135.85 1850.5 3137.71 1852 3139.94 1852L3149.72 1852C3151.06 1852 3152.27 1851.43 3153.08 1850.46 3153.86 1849.53 3154.14 1848.31 3153.94 1847.18L3121.53 1677.57C3121.13 1675.5 3119.26 1674 3117.07 1674L3117.07 1674Z" fill-rule="evenodd"/><path d="M3009.69 1680.48C3010.18 1680.48 3010.55 1680.76 3010.47 1681.17L2977.18 1847.79C2977.09 1848.16 2976.65 1848.48 2976.16 1848.48L2966.32 1848.48C2965.83 1848.48 2965.47 1848.2 2965.55 1847.79L2998.84 1681.17C2998.92 1680.8 2999.37 1680.48 2999.86 1680.48L3009.69 1680.48 3009.69 1680.48ZM3009.69 1677 2999.86 1677C2997.66 1677 2995.74 1678.5 2995.37 1680.56L2962.08 1847.14C2961.84 1848.32 2962.16 1849.53 2962.94 1850.46 2963.75 1851.43 2964.98 1852 2966.32 1852L2976.16 1852C2978.36 1852 2980.24 1850.5 2980.64 1848.48L3013.94 1681.86C3014.14 1680.64 3013.85 1679.43 3013.08 1678.54 3012.22 1677.57 3011 1677 3009.69 1677L3009.69 1677Z" fill-rule="evenodd"/><path d="M2902.27 1712C2891.09 1712 2882 1702.9 2882 1691.79 2882 1680.63 2891.09 1671.53 2902.27 1671.53L3026.94 1671.49 3151.93 1447.44 3152.05 1447.19C3155.36 1439.96 3160.37 1429 3171.03 1429L3257.7 1429C3268.32 1429 3277 1437.65 3277 1448.32 3277 1448.61 3276.92 1448.93 3276.8 1449.17L3140.62 1693.32C3138.2 1699.18 3133.03 1711.8 3121.56 1711.8 3121.56 1711.8 3118.17 1711.96 3117.32 1711.96L2902.27 1712Z" fill="#FFFFFF" fill-rule="evenodd"/><path d="M3257.93 1430.48C3267.64 1430.48 3275.48 1438.38 3275.48 1448.1L3139.13 1692.62C3136.05 1700.03 3131.24 1710.19 3121.54 1710.19 3121.54 1710.19 3118.14 1710.36 3117.29 1710.36L2902 1710.44C2891.77 1710.44 2883.44 1702.14 2883.44 1691.93 2883.44 1681.69 2891.73 1673.43 2902 1673.43L3027.88 1673.39 3153.56 1448.1C3156.84 1440.89 3161.45 1430.48 3171.11 1430.48L3257.93 1430.48 3257.93 1430.48ZM3257.93 1427 3171.15 1427C3159.39 1427 3154.09 1438.58 3150.57 1446.27L3150.45 1446.52 3025.86 1669.91 2902.04 1669.95C2889.87 1669.95 2880 1679.83 2880 1691.97 2880 1704.12 2889.91 1714 2902.04 1714L3117.33 1713.92C3118.22 1713.92 3121.78 1713.76 3121.78 1713.76 3134.15 1713.76 3139.65 1700.68 3142.32 1694.2L3278.56 1449.84C3278.84 1449.31 3279 1448.74 3279 1448.14 3279 1436.43 3269.54 1427 3257.93 1427L3257.93 1427Z" fill-rule="evenodd"/><path d="M3071.73 1672.58C3071.73 1672.58 3105.18 1614.58 3135.88 1561.3 3136.37 1560.45 3197.2 1559.56 3197.68 1558.76 3206.82 1542.9 3203.83 1527.29 3204.19 1512.12 3204.8 1488.09 3204.68 1467.54 3204.68 1467.54L3262.76 1434.66C3262.76 1434.66 3274.97 1426.65 3277.24 1414.6 3279.5 1402.54 3276.87 1392.11 3267.45 1390.33 3258.02 1388.55 3203.55 1389.64 3203.55 1389.64 3203.55 1389.64 3202.01 1369.37 3188.38 1363.51 3174.75 1357.64 3157.84 1352.99 3139.64 1367.23 3108.18 1391.86 3124.03 1410.63 3124.03 1410.63L3112.58 1439.11C3112.58 1439.11 3101.18 1434.46 3094.38 1440.97 3087.59 1447.48 3083.91 1454.48 3083.91 1454.48L3027.69 1453.55 3051.03 1384.95 3045.44 1366.06C3045.44 1366.06 3043.58 1363.75 3042.17 1363.95 3040.79 1364.16 3040.31 1364.2 3040.31 1364.2L3034 1345.06C3034 1345.06 3016.36 1333.05 3013.94 1335.28 3011.51 1337.46 3010.1 1339.64 3011.59 1341.83 3013.09 1344.01 3025.59 1351.37 3025.59 1351.37L3027.45 1361.16 3010.18 1369.58C3010.18 1369.58 3006.09 1369.86 3007.14 1375.64 3008.2 1381.43 3010.58 1388.91 3012.97 1389.88 3015.35 1390.85 3017.17 1389.64 3017.17 1389.64 3017.17 1389.64 3017.17 1395.71 3017.42 1397.32 3017.66 1398.98 3018.59 1400.6 3018.59 1400.6L2997.11 1462.89C2997.11 1462.89 2994.24 1475.39 3001.56 1478.99 3008.88 1482.59 3012.28 1482.71 3012.28 1482.71L3076.43 1482.47C3076.43 1482.47 3067.89 1488.66 3071.05 1497.15 3074.24 1505.69 3083.18 1516.28 3083.18 1516.28 3083.18 1516.28 3079.46 1519.28 3080.15 1523.77 3080.83 1528.26 3082.25 1534.97 3082.25 1534.97 3082.25 1534.97 3065.79 1541.89 3051.23 1550.59 3036.67 1559.32 3019.96 1568.1 3019.96 1568.1L2964.92 1515.6C2964.92 1515.6 2935.51 1491.25 2907.28 1496.46 2874.2 1502.57 2849.45 1522.11 2849.45 1522.11 2849.45 1522.11 2847.34 1516.28 2842.45 1517.66 2837.56 1519.08 2820.29 1526.64 2820.29 1530.48 2820.29 1534.37 2823.08 1538.17 2823.08 1538.17L2695.72 1613.04C2695.72 1613.04 2679.74 1620.97 2668.42 1619.79 2657.09 1618.62 2645.48 1621.01 2641.36 1624.69 2637.23 1628.37 2632.26 1632.29 2634.6 1634.72 2636.91 1637.15 2724.19 1676.02 2724.19 1676.02 2724.19 1676.02 2732.44 1677.88 2736.08 1672.98 2739.72 1668.09 2753.79 1645.44 2753.79 1645.44L2781.3 1630.51C2781.3 1630.51 2771.19 1643.82 2772.2 1646.85 2773.21 1649.85 2774.75 1652.92 2774.75 1652.92L2689.12 1804.56C2689.12 1804.56 2679.94 1816.21 2667.65 1820.91 2655.35 1825.56 2645.4 1834.13 2643.38 1838.62 2641.36 1843.11 2638.73 1849.02 2641.52 1849.83 2644.31 1850.64 2740.65 1851 2740.65 1851 2740.65 1851 2749.95 1848.49 2751.61 1838.18 2753.27 1827.86 2753.51 1814.31 2753.71 1810.19 2753.92 1806.06 2757.68 1796.19 2757.68 1796.19L2835.13 1686.78C2835.13 1686.78 2849.61 1698.02 2853.33 1696.57 2857.05 1695.11 2864.98 1683.42 2866.88 1680.47 2871.37 1673.51 2864.09 1670.68 2864.09 1670.68L2878.08 1645.03 3025.51 1686.33C3025.51 1686.33 3042.05 1687.87 3052.81 1683.3 3063.56 1678.77 3071.73 1672.58 3071.73 1672.58Z" fill="#FFFFFF" fill-rule="evenodd"/><path d="M3204 1429.93 3189.95 1438.32C3189.95 1438.32 3180.85 1436.38 3173.1 1442.28 3165.34 1448.17 3161.4 1456 3161.4 1456L3156.93 1454.59 3166.07 1427.83C3166.07 1427.83 3173.54 1427.99 3178.01 1423.63 3182.48 1419.27 3184.43 1413.7 3180.81 1412.21 3177.24 1410.75 3174.48 1411.52 3174.48 1411.52L3168.14 1415.48 3164.85 1412.93C3164.85 1412.93 3165.95 1406.96 3167.41 1402.68 3168.87 1398.4 3168.59 1388.72 3168.59 1388.72 3168.59 1388.72 3156.53 1390.25 3149.14 1387.3 3141.75 1384.36 3137.65 1380.81 3137.65 1380.81 3137.65 1380.81 3130.86 1384.84 3129 1390.13 3127.09 1395.38 3126.44 1398.73 3126.44 1398.73L3124.65 1406.31 3120.35 1402.48C3120.35 1402.48 3117.91 1390.29 3125.95 1381.98 3134.03 1373.66 3147.64 1357.92 3163.43 1358 3179.19 1358.08 3199.41 1363.77 3201.6 1383.59 3203.88 1403.45 3204 1429.93 3204 1429.93Z" fill="#1A1A1A" fill-rule="evenodd"/><path d="M3203.91 1471 3181.81 1480.53 3136 1560.13 3185.77 1560.37C3185.77 1560.37 3202.06 1565.94 3203.23 1543.86 3204.36 1521.78 3203.91 1471 3203.91 1471Z" fill="#1A1A1A" fill-rule="evenodd"/><path d="M3148 1430.37 3141.03 1450.84 3125.25 1452C3125.25 1452 3123.23 1447.93 3120.38 1445.53 3117.48 1443.14 3112 1440.46 3112 1440.46L3123.84 1414 3126.86 1414.24C3126.86 1414.24 3126.17 1424.98 3134.99 1428.73 3143.81 1432.56 3148 1430.37 3148 1430.37Z" fill="#1A1A1A" fill-rule="evenodd"/><path d="M3127 1576.86C3127 1576.86 3124.61 1568.63 3111.33 1561.12 3097.84 1553.5 3056.5 1544.74 3055.77 1546.93 3055.77 1546.93 3044.31 1552.85 3038.03 1556.3 3031.75 1559.71 3020.98 1568.71 3020.98 1568.71L2969.59 1520.04C2969.59 1520.04 2944.28 1494.21 2920.55 1495.02 2911.68 1495.3 2897.96 1495.95 2885.77 1500.62 2865.32 1508.48 2847.01 1521.91 2847.01 1521.91 2847.01 1521.91 2846.65 1516.27 2842.11 1517.24 2837.58 1518.22 2819.72 1528.19 2819.68 1530.79 2819.64 1533.38 2821.78 1537.56 2821.78 1537.56L2839.52 1565.63C2839.52 1565.63 2825.75 1568.91 2816.88 1582.46 2807.97 1596.04 2792.14 1625.97 2792.14 1625.97 2792.14 1625.97 2787.85 1624.43 2785.13 1626.66 2782.42 1628.93 2771.12 1645.52 2772.05 1648.2 2772.99 1650.83 2776.02 1653.11 2776.02 1653.11L2850.54 1698C2850.54 1698 2858.19 1693.26 2862 1687.7 2865.8 1682.14 2868.96 1675.86 2867.83 1674.15 2866.69 1672.45 2863.17 1669.94 2863.17 1669.94L2876.25 1645.6 3003.77 1679.26C3003.77 1679.26 3014.54 1688.59 3036.94 1685.35 3059.33 1682.1 3063.87 1682.06 3080.15 1657.28 3096.34 1632.54 3127 1576.86 3127 1576.86Z" fill="#1A1A1A" fill-rule="evenodd"/><path d="M2756 1801.2 2752.73 1815.87 2731.26 1843.51 2690.91 1844C2690.91 1844 2690.06 1832.82 2683.92 1828.89 2677.77 1824.96 2669 1820.62 2669 1820.62 2669 1820.62 2682.95 1812.38 2686.5 1807.88 2690.02 1803.37 2698.39 1789 2698.39 1789L2756 1801.2Z" fill="#1A1A1A" fill-rule="evenodd"/><path d="M2754.94 1640.8C2754.09 1639.79 2722 1598 2722 1598 2722 1598 2705.59 1609.62 2693.92 1613.81 2682.26 1618.01 2664 1619.86 2664 1619.86 2664 1619.86 2673.17 1623.82 2675.38 1631.28 2677.55 1638.7 2678.4 1646.85 2678.4 1646.85L2716.21 1665C2716.21 1665 2727.59 1656.09 2734.31 1655.48 2741.02 1654.88 2747.54 1652.7 2747.54 1652.7 2747.54 1652.7 2755.78 1641.81 2754.94 1640.8Z" fill="#1A1A1A" fill-rule="evenodd"/><path d="M3015.17 1334C3014.77 1334 3014.4 1334 3014 1334 3009.63 1334.97 3008.74 1339.66 3009.55 1342.41 3010.4 1345.24 3014.08 1345.73 3017.03 1347.55 3018.12 1348.24 3019.46 1349.29 3020.75 1350.1 3022.13 1350.95 3024.31 1351.8 3024.71 1352.44 3025 1352.89 3027.06 1359.72 3026.82 1360.37 3026.61 1360.86 3022.53 1362.72 3021.24 1363.4 3018.89 1364.66 3016.99 1365.35 3015.41 1366.2 3011.77 1368.14 3006.47 1369.88 3005.63 1373.44 3004.86 1376.55 3006.39 1381.16 3007.73 1384.4 3008.54 1386.34 3010.24 1389.86 3011.25 1390.71 3012.22 1391.47 3013.55 1391.47 3015.45 1391.64 3015.01 1394.99 3016.79 1397.58 3016.63 1399.81 3016.42 1402.23 3014.81 1405.06 3013.84 1407.98 3008.21 1424.52 3003.08 1440.62 2997.5 1457.2 2996.61 1459.91 2995.11 1462.78 2994.71 1465.13 2993.17 1473.95 2998.71 1481.47 3004.05 1483.33 3007.85 1484.66 3014.73 1484.5 3020.39 1484.5 3035.39 1484.5 3048.61 1484.5 3064.22 1484.5 3066.08 1484.5 3071.99 1483.85 3072.84 1484.5 3073.16 1484.74 3070.13 1489.07 3069.81 1489.88 3066.13 1498.98 3071.5 1506.91 3076.32 1512.05 3077.04 1512.81 3080.36 1514.88 3080.52 1515.77 3080.64 1516.58 3078.26 1520.01 3077.97 1522.28 3077.73 1524.14 3077.93 1526 3078.22 1527.66 3078.78 1531.06 3081.01 1532.71 3078.9 1534.9 3077.85 1535.99 3073.89 1536.96 3072.6 1537.45 3054.52 1544.69 3038.54 1553.54 3023.38 1564.02 3022.65 1564.55 3020.31 1566.57 3020.1 1566.57 3019.74 1566.57 3016.83 1563.53 3015.65 1562.36 3005.83 1552.53 2995.68 1542.38 2986.05 1532.76 2979.3 1526 2972.67 1517.67 2964.13 1512.25 2962.39 1511.12 2961.06 1509.74 2959.48 1508.53 2956.21 1506.06 2952.41 1504 2949.01 1502.22 2940.84 1498.01 2933.32 1494.86 2923.13 1494.05 2902.54 1492.39 2883.82 1499.06 2869.74 1507.35 2864.73 1510.31 2859.84 1513.83 2854.13 1517.14 2853 1517.79 2849.24 1520.22 2848.76 1520.18 2847.02 1519.97 2846.65 1516.33 2844.55 1515.97 2843.09 1515.73 2840.18 1516.9 2838.24 1517.59 2833.27 1519.41 2826.39 1522.4 2822.83 1525.27 2821.14 1526.65 2818.34 1529.32 2818.39 1532.03 2818.43 1533.73 2821.54 1536.31 2821.18 1537.85 2820.93 1538.82 2815.59 1541.17 2813.25 1542.5 2778.63 1562.36 2744.54 1582.02 2710.17 1602.2 2706.2 1604.51 2702.28 1606.69 2698.28 1609.2 2695.73 1610.82 2693.99 1611.83 2690.59 1613.16 2687.07 1614.54 2682.63 1616.48 2678.46 1617.37 2672.72 1618.58 2666.25 1617.29 2659.09 1617.85 2653.06 1618.3 2647.2 1620 2642.31 1622.75 2639.07 1624.57 2631.43 1629.34 2632.03 1634.2 2632.44 1637.39 2638.3 1639.53 2642.06 1641.19 2666 1651.75 2688.65 1661.86 2712.71 1672.7 2716.39 1674.36 2721.08 1677.35 2724.6 1677.84 2725.86 1678 2727.39 1677.68 2729.05 1677.59 2731.24 1677.47 2733.01 1677.27 2733.94 1676.91 2739.44 1674.8 2742.11 1667.08 2745.15 1661.74 2747.33 1657.9 2750.04 1653.73 2752.63 1649.61 2753.48 1648.23 2754.41 1646.29 2755.18 1645.64 2756.47 1644.55 2758.78 1644.02 2760.31 1643.3 2765.77 1640.75 2769.33 1639.25 2775.48 1636.3 2774.35 1639.7 2767.31 1647.7 2772.2 1652.15 2772.61 1652.52 2774.02 1653.08 2774.06 1653.33 2774.22 1653.85 2769.33 1661.82 2768.68 1662.87 2743.57 1706.31 2718.29 1749.87 2693.38 1793.23 2690.03 1799.06 2686.99 1804.35 2682.18 1808.84 2680.04 1810.83 2677.81 1812.77 2675.67 1814.43 2671.14 1817.98 2665.36 1819.72 2659.57 1822.6 2651.57 1826.52 2644.73 1831.45 2640.69 1840.11 2639.52 1842.58 2637.86 1847.07 2639.27 1849.45 2640.45 1851.39 2642.71 1851.39 2645.58 1852 2677.13 1852 2708.71 1852 2740.25 1852 2742.24 1851.19 2748.3 1848.97 2750.28 1846.62 2752.75 1843.67 2753.11 1837.76 2753.56 1832.63 2753.96 1827.77 2754.45 1822.72 2754.97 1818.87 2756.15 1810.38 2757.36 1801.12 2761.04 1794.85 2762.78 1791.9 2765.25 1789.11 2767.35 1786.23 2788.46 1756.75 2809.21 1727.46 2830.07 1697.82 2831.57 1695.67 2835.13 1689.32 2836.58 1689.2 2837.19 1689.16 2839.7 1691.06 2840.55 1691.55 2842.33 1692.56 2843.62 1693.25 2844.75 1693.89 2847.5 1695.47 2850.41 1698.26 2853.61 1698.1 2858.66 1697.82 2862.1 1692.2 2864.57 1688.76 2867.8 1684.27 2873.91 1676.14 2869.02 1671.04 2868.13 1670.11 2866.02 1669.38 2865.98 1668.25 2865.94 1667.48 2868.53 1664.37 2869.26 1663.11 2871.61 1658.99 2873.1 1656.24 2875.33 1652.4 2876.01 1651.22 2877.59 1647.3 2878.6 1647.02 2878.84 1646.94 2882.44 1648.07 2883.74 1648.43 2917.63 1657.45 2951.07 1666.71 2983.99 1675.49 2991.15 1677.39 2998.55 1678.73 3004.74 1681.56 3011.25 1684.55 3018.04 1686.53 3025.28 1687.87 3032.76 1689.24 3040.53 1688.07 3048.13 1686.25 3063.54 1682.53 3072.64 1675.9 3079.39 1663.84 3096.86 1632.74 3115.46 1601.68 3133.5 1570.53 3134.43 1568.95 3137.46 1561.92 3139.08 1561.92 3151.86 1561.92 3166.05 1561.92 3178.95 1561.92 3185.75 1561.92 3191.86 1562.36 3196.43 1560.3 3200.79 1558.32 3203.91 1553.95 3205.28 1549.1 3206.78 1543.84 3206.21 1536.96 3206.21 1530.21 3206.21 1513.1 3206.21 1497.24 3206.21 1480.05 3206.21 1477.63 3205.36 1472.08 3206.21 1470.02 3206.54 1469.25 3210.26 1467.43 3211.79 1466.5 3225.26 1458.7 3239.62 1450.69 3252.6 1443.17 3267.16 1434.75 3284.95 1423.35 3278.72 1398.39 3277.59 1393.86 3271.2 1388.85 3266.15 1388.12 3264.2 1387.83 3262.42 1388.2 3260.08 1388.12 3244.02 1387.67 3228.05 1388.4 3212.72 1387.63 3211.39 1387.55 3205.97 1388.36 3205.04 1387.63 3204.88 1387.51 3204.47 1384.03 3204.35 1383.43 3203.38 1379.14 3201.88 1375.3 3200.15 1372.71 3192.95 1361.83 3175.8 1352.89 3157.72 1357.3 3142.88 1360.94 3130.43 1371.21 3122.98 1382.74 3118.62 1389.49 3115.99 1400.17 3121.81 1406.52 3122.58 1407.37 3125.41 1409.07 3124.84 1410.97 3124.6 1411.78 3123.55 1411.66 3122.74 1412.39 3122.26 1412.83 3121.57 1414.04 3121.33 1414.49 3118.82 1419.67 3116.07 1426.38 3113.16 1432.2 3112.43 1433.7 3110.81 1437.75 3110.12 1438.03 3109.4 1438.31 3106.49 1437.38 3105.47 1437.34 3095.85 1436.9 3089.14 1442.56 3085.17 1447.82 3083.76 1449.68 3083.11 1452.43 3081.65 1452.95 3080.4 1453.4 3077.33 1452.95 3075.14 1452.95 3059.13 1452.95 3044.97 1453.16 3029.45 1452.71 3035.59 1434.39 3043.44 1411.82 3049.75 1392.77 3050.68 1389.94 3052.42 1386.01 3052.29 1383.67 3052.17 1380.96 3050.23 1377.12 3049.26 1374.12 3048.37 1371.41 3047.64 1366.64 3045.99 1364.58 3045.02 1363.36 3042.22 1363.16 3041.09 1361.79 3040.45 1360.98 3040.2 1359.04 3039.68 1357.58 3038.3 1353.66 3037.13 1348.72 3035.03 1345.45 3031.43 1339.91 3020.95 1337.4 3015.17 1334ZM3031.27 1365.27C3031.87 1364.54 3030.86 1363.04 3030.58 1361.99 3029.73 1358.87 3028.92 1353.17 3027.54 1351.27 3026.29 1349.57 3022.04 1347.87 3020.31 1346.86 3019.17 1346.17 3013.43 1343.06 3013.07 1342.21 3012.26 1340.31 3013.75 1336.51 3014.93 1337.07 3019.86 1339.46 3026.53 1341.52 3031.02 1345.24 3033.21 1347.02 3034.06 1350.87 3035.43 1354.79 3035.88 1356.04 3036.28 1357.42 3036.85 1359 3037.21 1360.01 3038.38 1362.47 3038.26 1363.2 3038.02 1364.33 3031.27 1368.62 3030.09 1368.78 3029.73 1368.82 3028.52 1368.42 3028.23 1368.54 3026.37 1369.31 3026.57 1372.67 3023.58 1372.75 3023.82 1371.09 3021.4 1367.21 3021.96 1365.75 3022.49 1364.33 3026.86 1363.81 3027.54 1362.96 3027.26 1364.94 3029.85 1366.96 3031.27 1365.27ZM3177.01 1383.47C3176.41 1383.06 3174.38 1383.79 3172.81 1384.4 3164.56 1387.63 3155.3 1387.67 3147.61 1384.15 3144.74 1382.82 3140.78 1380.92 3139.69 1378.33 3139.57 1378.01 3139.52 1373.92 3138.07 1373.44 3136.94 1373.07 3135.89 1373.96 3135.52 1374.61 3134.43 1376.31 3136.13 1378.25 3135.76 1379.5 3135.52 1380.27 3133.01 1381.85 3132.29 1382.78 3128.04 1388 3125.78 1396 3124.8 1404.01 3119.75 1397.22 3125.01 1386.82 3128.53 1382.09 3136.17 1371.82 3149.07 1360.33 3164.68 1359.48 3185.3 1358.35 3200.06 1371.86 3201.08 1391.68 3201.52 1400.21 3202.01 1409.43 3202.01 1419.42 3202.01 1421.93 3202.94 1427.15 3202.01 1429.21 3201.52 1430.3 3195.98 1432.61 3195.01 1433.18 3192.58 1434.59 3190.24 1436.82 3188.01 1437.14 3186.48 1437.38 3184.82 1436.78 3183.36 1436.9 3173.05 1437.79 3164.76 1445.31 3160.76 1450.89 3162.98 1445.03 3164.6 1439.93 3166.82 1433.86 3167.27 1432.61 3168.32 1428.44 3168.93 1428.04 3169.77 1427.47 3171.84 1428 3172.89 1427.8 3177.62 1426.87 3184.78 1422.74 3185.02 1417.52 3185.26 1412.99 3181.62 1409.76 3178.27 1409.35 3177.09 1409.23 3173.17 1409.43 3172.69 1409.59 3171.92 1409.88 3170.38 1412.59 3169.21 1412.39 3166.22 1411.94 3169.29 1405.39 3169.9 1403.04 3171.47 1397.3 3172.08 1393.01 3170.83 1388.56 3172.52 1388.85 3180.13 1385.61 3177.01 1383.47ZM3026.13 1397.66C3026.37 1400.53 3027.3 1405.39 3030.09 1405.83 3034.9 1406.6 3030.94 1402.68 3030.58 1401.63 3028.43 1396.09 3030.17 1388.04 3033.13 1385.08 3033.97 1384.23 3036.44 1383.59 3036.4 1382.54 3036.36 1381.65 3034.26 1380.96 3033.37 1380.43 3032.32 1379.83 3030.78 1378.81 3029.89 1378.81 3027.75 1378.81 3027.3 1380.72 3024.75 1381.16 3022.09 1381.61 3019.42 1380.8 3019.38 1379.06 3019.38 1378.45 3020.95 1377.52 3021.48 1377.2 3026.82 1373.8 3030.82 1371.49 3035.96 1368.34 3037.21 1367.57 3040.73 1365.02 3042.47 1365.55 3044.33 1366.07 3045.06 1371.66 3045.99 1374.41 3047.04 1377.56 3049.3 1381.28 3049.02 1383.95 3048.94 1384.6 3048.21 1385.45 3047.85 1386.3 3045.58 1391.76 3043.92 1397.5 3042.02 1403.33 3037.45 1417.16 3032.32 1432.24 3027.79 1446.24 3026.7 1449.6 3024.51 1453.16 3025.68 1455.1 3026.57 1456.59 3030.82 1456.27 3033.85 1456.27 3038.22 1456.27 3040.04 1456.27 3043.4 1456.27 3039.92 1462.26 3037.41 1471.96 3039.43 1481.23 3030.82 1480.82 3021.36 1481.67 3013.31 1481.47 3011.04 1481.43 3007.85 1481.19 3005.83 1480.54 3001.18 1479 2997.74 1471.8 2998.83 1464.68 2999.2 1462.38 3000.53 1459.79 3001.38 1457.24 3007.12 1440.13 3013.59 1420.84 3018.85 1404.54 3020.63 1405.35 3021.52 1407.73 3024.23 1407.57 3028.68 1407.29 3023.99 1404.98 3023.06 1404.05 3021.16 1402.19 3019.62 1397.22 3019.09 1393.34 3018.57 1389.29 3018.41 1390.34 3021.44 1388.68 3023.99 1387.27 3028.6 1384.28 3030.05 1384.03 3027.26 1387.39 3025.56 1391.39 3026.13 1397.66ZM3020.75 1374.57C3020.71 1374.73 3018.81 1376.06 3017.96 1376.43 3017.6 1376.59 3016.59 1376.47 3016.34 1376.67 3014.52 1378.05 3015.49 1380.43 3016.59 1381.57 3018.2 1383.26 3021.11 1383.3 3023.34 1384.6 3021.16 1384.64 3019.82 1388.16 3017.76 1387.39 3016.63 1386.99 3015.78 1382.58 3015.21 1380.15 3014.44 1377.04 3014.24 1373.84 3013.79 1371.53 3013.75 1371.21 3013.23 1370.32 3013.31 1370.12 3013.63 1369.31 3018.61 1367.93 3018.89 1367.33 3018.61 1368.82 3021.16 1373.48 3020.75 1374.57ZM3013.31 1385.33C3013.75 1386.5 3014.68 1387.51 3014.48 1388.6 3011.77 1385.93 3007.12 1375.78 3010.52 1371.57 3010.92 1376.55 3011.85 1381.48 3013.31 1385.33ZM3152.06 1460.19C3146.16 1464.93 3138.11 1470.99 3129.46 1472.08 3124 1472.77 3118.98 1470.95 3119.91 1465.33 3120.44 1462.05 3126.42 1454.57 3129.25 1453.88 3133.38 1452.91 3136.45 1455.02 3140.9 1453.88 3141.79 1453.64 3143.16 1452.35 3143.69 1451.54 3145.27 1449.23 3145.79 1446.24 3147.17 1442.44 3148.34 1439.24 3150.4 1435.32 3150.44 1432.89 3150.44 1432.24 3149.84 1431.48 3150.2 1431.03 3151.46 1429.62 3158.94 1429.29 3158.82 1426.83 3158.65 1423.39 3152.39 1427.27 3150.89 1427.76 3148.46 1428.56 3145.87 1429.01 3143.89 1429.17 3134.35 1429.82 3129.5 1420.15 3128.73 1411.9 3128.65 1411.09 3128.36 1409.76 3128.48 1409.11 3128.53 1408.95 3129.13 1408.83 3129.17 1407.94 3129.29 1406.6 3128.93 1405.27 3128.93 1403.97 3129.01 1395.52 3132.85 1386.42 3137.54 1382.29 3137.99 1381.89 3137.91 1382.5 3138.23 1382.78 3144.74 1388.04 3155.58 1391.39 3167.39 1389.78 3167.35 1395.68 3166.5 1399.36 3165.04 1404.46 3163.83 1408.75 3161.32 1415.18 3167.15 1414.93 3166.7 1416.47 3164.4 1416.88 3165.29 1418.45 3165.73 1419.22 3166.14 1418.25 3167.39 1418.94 3167.87 1419.22 3167.63 1419.95 3168.56 1420.11 3171.68 1420.68 3178.23 1419.3 3178.35 1418.25 3178.67 1415.9 3173.62 1417 3171.59 1416.39 3173.54 1413.92 3174.83 1411.66 3177.9 1412.43 3179.64 1412.87 3181.02 1415.86 3180.69 1417.81 3180.21 1420.76 3173.78 1425.25 3169.49 1424.8 3167.91 1424.64 3165.69 1422.09 3164.11 1422.94 3161.81 1424.16 3165.12 1425.81 3165.29 1427.15 3165.33 1427.47 3164.32 1429.29 3163.87 1430.42 3160.84 1438.55 3157.8 1447.09 3155.26 1454.45 3155.94 1454.49 3157.08 1453.8 3157.6 1454.45 3156.59 1456.59 3154.25 1458.41 3152.06 1460.19ZM3239.74 1391.84C3243.7 1392 3247.62 1391.84 3251.63 1391.84 3255.79 1391.84 3260.32 1391.19 3264.2 1391.84 3267.88 1392.45 3273.22 1395.6 3274.48 1398.35 3275.57 1400.78 3275.85 1405.71 3275.65 1409.31 3274.84 1422.58 3267.03 1429.17 3257.94 1434.51 3251.51 1438.27 3244.59 1442.52 3237.63 1446.4 3236.06 1447.29 3231.41 1450.45 3230.64 1450.36 3229.22 1450.24 3227.48 1446.28 3226.43 1444.78 3223.4 1440.37 3221.5 1437.38 3218.51 1433.13 3218.14 1432.61 3214.18 1428.12 3214.54 1427.07 3214.58 1426.95 3217.98 1425.05 3218.99 1424.52 3220.85 1423.47 3221.9 1423.18 3223.64 1422.17 3227.44 1419.99 3229.38 1417.64 3232.5 1417.04 3234.44 1416.67 3238.81 1417.89 3239.49 1416.35 3239.9 1415.46 3238.04 1413.52 3237.39 1413.32 3235.37 1412.67 3231.73 1413.36 3229.22 1413.32 3223.24 1413.15 3214.1 1413.15 3206.13 1412.83 3206.21 1405.35 3206.25 1397.95 3205.44 1391.39 3217.41 1391.72 3227.73 1391.35 3239.74 1391.84ZM3146.44 1431.72C3145.15 1436.69 3143.57 1441.02 3141.79 1445.96 3141.39 1447.09 3140.37 1450.36 3139.93 1450.61 3138.64 1451.34 3134.47 1450.61 3133.42 1450.61 3131.76 1450.61 3127.8 1451.17 3126.67 1450.61 3126.02 1450.28 3125.41 1447.86 3124.8 1447.09 3121.89 1443.41 3117.61 1441.02 3113.6 1439.4 3117.85 1431.72 3121.37 1423.23 3125.49 1415.38 3127.64 1425.41 3133.78 1433.74 3146.44 1431.72ZM3206.17 1426.58C3206.17 1423.31 3206.17 1420.03 3206.17 1416.79 3211.67 1416.96 3217.82 1416.47 3222.95 1417.04 3217.37 1420.23 3211.95 1423.63 3206.17 1426.58ZM3194.28 1471.4C3190.76 1473.42 3187.25 1476.13 3183.57 1477.71 3183.16 1477.87 3181.58 1477.91 3181.22 1478.19 3180.82 1478.48 3180.13 1480.38 3179.36 1481.71 3170.34 1497.08 3162.54 1510.87 3153.72 1526.04 3152.63 1527.94 3150.69 1532.35 3149.51 1532.8 3148.14 1533.32 3144.3 1532.8 3141.59 1532.8 3124.56 1532.8 3108.87 1532.8 3092.61 1532.8 3090.19 1532.8 3085.82 1533.4 3084.44 1532.8 3081.94 1531.66 3081.78 1522.56 3082.83 1519.73 3083.23 1518.64 3085.82 1515.81 3085.62 1514.84 3085.42 1513.87 3083.07 1513.3 3082.34 1512.73 3078.01 1509.3 3070.61 1500.4 3073.49 1492.23 3075.91 1485.35 3082.22 1480.38 3087.72 1476.37 3089.18 1475.32 3093.46 1473.18 3093.3 1471.92 3093.06 1470.14 3090.07 1470.35 3088.17 1471.44 3084.4 1473.62 3082.38 1475.44 3079.31 1477.95 3078.14 1478.92 3076.76 1481.1 3075.1 1481.47 3073.4 1481.79 3070.05 1481.23 3067.42 1481.23 3061.47 1481.23 3057.83 1481.23 3051.57 1481.23 3049.14 1481.23 3044.57 1481.95 3043.64 1481.23 3043.11 1480.82 3042.95 1475.93 3042.95 1474.23 3042.95 1468.28 3043.88 1465.49 3045.5 1461.41 3046.03 1460.03 3047.36 1456.59 3048.05 1456.27 3049.26 1455.7 3054.52 1456.27 3057.39 1456.27 3064.79 1456.27 3068.92 1456.27 3076.28 1456.27 3079.11 1456.27 3084 1456.84 3085.38 1455.78 3086.35 1455.06 3086.83 1452.14 3087.48 1451.13 3090.63 1446.16 3096.5 1440.74 3103.82 1440.42 3109.19 1440.17 3112.67 1442.07 3116.39 1444.62 3118.66 1446.2 3123.31 1449.84 3123.15 1452.79 3123.11 1453.84 3120.19 1456.19 3119.43 1457.24 3118.05 1459.02 3116.68 1460.92 3115.91 1462.62 3112.11 1471.28 3120.07 1476.49 3128.48 1475.93 3141.34 1475.04 3152.06 1466.42 3159.5 1459.59 3160.84 1458.37 3162.54 1457.4 3163.22 1456.55 3164.32 1455.22 3164.68 1453.28 3165.57 1451.9 3168.8 1446.81 3178.43 1438.8 3187 1440.46 3188.01 1440.66 3189.23 1441.87 3189.55 1441.87 3190.4 1441.87 3193.8 1439.36 3194.69 1438.84 3198.81 1436.41 3201.12 1435.12 3205.16 1432.77 3207.22 1431.6 3210.3 1429.13 3211.23 1430.22 3216.97 1436.82 3220.73 1445.03 3226.63 1452.83 3215.39 1458.98 3205.04 1465.17 3194.28 1471.4ZM3181.22 1487.45C3182.23 1485.72 3183.08 1483.53 3184.01 1482.56 3185.95 1480.58 3190.28 1478.92 3192.87 1477.42 3196.06 1475.56 3199.38 1473.58 3201.97 1472.29 3201.97 1493.97 3201.97 1516.29 3201.97 1537.61 3201.97 1540.72 3202.57 1544 3202.21 1546.71 3201.64 1550.79 3197.96 1555.81 3194.28 1557.67 3190.93 1559.37 3186.03 1558.84 3180.98 1558.84 3167.63 1558.84 3153.23 1558.36 3140.41 1558.6 3152.95 1536.15 3167.79 1510.67 3181.22 1487.45ZM2881.55 1566.53C2879.85 1566.04 2875.49 1565.4 2874.31 1564.67 2872.37 1563.49 2869.95 1557.14 2868.49 1554.64 2863.48 1545.98 2858.75 1538.26 2853.57 1529.44 2852.72 1527.98 2850.54 1524.75 2850.78 1524.06 2850.86 1523.82 2854.46 1521.92 2855.23 1521.51 2863.35 1516.94 2870.39 1512.65 2877.83 1508.45 2880.62 1506.91 2883.78 1504.56 2886.93 1503.31 2893.81 1500.56 2905.62 1498.46 2915.4 1498.17 2935.3 1497.65 2951.19 1509.17 2964.38 1518.23 2970.24 1522.24 2975.54 1528.47 2980.71 1533.64 3004.61 1557.55 3028.27 1581.45 3052.29 1605.48 3053.99 1607.18 3059.21 1613.28 3060.71 1613.16 3060.95 1613.16 3062.73 1611.46 3062.81 1611.06 3063.17 1609 3059.94 1606.33 3058.6 1604.99 3049.38 1595.77 3041.17 1587.76 3032.72 1579.35 3029.16 1575.79 3025.6 1572.43 3022.93 1568.87 3030.74 1563.58 3038.71 1558.24 3047.4 1553.46 3049.42 1552.37 3054.32 1549.26 3056.26 1549.05 3058.85 1548.77 3063.29 1549.94 3066.73 1550.47 3070.37 1551 3074.05 1551.81 3076.76 1552.33 3092.94 1555.57 3108.63 1560.06 3119.43 1569.12 3121.41 1570.77 3125.05 1573.77 3125.01 1575.63 3125.01 1576.64 3122.38 1580 3121.29 1581.94 3107.46 1606 3094.8 1628.25 3080.93 1651.91 3075.67 1660.93 3071.3 1669.59 3063.66 1674.76 3057.11 1679.21 3046.23 1682.45 3035.67 1683.38 3027.46 1684.11 3022.04 1682.08 3015.61 1680.34 3011.97 1679.37 3008.38 1678.61 3005.59 1677.07 3003.56 1675.94 3001.46 1673.83 2999.28 1671.93 2997.13 1670.07 2994.54 1668.41 2992.97 1666.55 2991.96 1665.34 2991.43 1663.84 2990.42 1662.59 2983.59 1654.14 2975.94 1646.53 2968.74 1638.56 2944.96 1612.23 2921.95 1585.86 2897.61 1559.49 2896.4 1558.2 2895.47 1556.58 2894.09 1557.14 2890.21 1558.8 2895.38 1563.9 2896.64 1565.31 2897.69 1566.45 2898.86 1567.7 2899.91 1568.83 2900.92 1569.93 2902.66 1571.58 2902.46 1572.31 2895.91 1570.41 2888.51 1568.51 2881.55 1566.53ZM2847.5 1563.49C2845.64 1563.78 2841.96 1564.99 2840.99 1564.67 2840.14 1564.38 2839.37 1561.96 2838.65 1560.7 2834.52 1553.46 2830.8 1547.36 2827 1540.88 2826.15 1539.47 2822.47 1534.09 2822.55 1532.47 2822.63 1531.3 2824.57 1529.2 2825.34 1528.51 2827.32 1526.77 2830.32 1525.43 2833.95 1523.61 2835.45 1522.85 2843.42 1518.68 2844.43 1520.1 2846.65 1523.21 2848.47 1527.21 2850.5 1530.81 2856.56 1541.53 2863.19 1552.78 2868.94 1563.25 2862.06 1562.64 2854.13 1562.56 2847.5 1563.49ZM3127.35 1571.66C3112.47 1556.13 3087.84 1550.39 3061.6 1546.22 3064.67 1544.89 3067.99 1543.11 3071.62 1541.57 3075.18 1540.04 3079.27 1539.19 3082.58 1537.61 3083.47 1537.2 3084.2 1536.19 3085.13 1535.99 3089.42 1534.98 3095.89 1535.99 3100.74 1535.99 3116.51 1535.99 3132.53 1535.99 3147.61 1535.99 3147.78 1535.99 3147.9 1536.03 3147.86 1536.23 3140.94 1547.92 3134.15 1559.85 3127.35 1571.66ZM2780.57 1629.06C2778.15 1630.55 2772.69 1632.74 2768.93 1634.44 2767.15 1635.25 2765.41 1635.93 2763.1 1636.99 2761.4 1637.79 2758.01 1639.7 2757.04 1639.53 2755.86 1639.33 2753.68 1635.93 2752.83 1634.88 2744.42 1623.96 2737.42 1614.66 2729.29 1603.86 2728.69 1603.05 2725.13 1599.57 2725.33 1598.72 2725.41 1598.44 2730.22 1595.89 2731.4 1595.2 2762.09 1577.41 2793.55 1559.65 2823.28 1542.26 2823.97 1541.86 2823.68 1542.3 2823.97 1542.75 2828.66 1549.9 2833.63 1559.13 2837.27 1565.84 2834.12 1567.05 2830.6 1567.58 2827.73 1569.36 2826.31 1570.21 2824.98 1572.11 2823.52 1573.57 2822.02 1575.06 2820.2 1576.28 2819.07 1577.53 2810.54 1587.4 2803.95 1601.84 2797.15 1613.45 2794.73 1617.57 2792.3 1621.54 2790.16 1625.34 2785.51 1622.1 2783.36 1627.32 2780.57 1629.06ZM2880.14 1643.98C2877.75 1643.34 2873.18 1642.37 2872.45 1643.74 2872.01 1644.59 2873.75 1645.12 2873.63 1646.29 2873.55 1646.94 2871.48 1649.65 2870.59 1651.18 2868.37 1655.07 2866.91 1657.45 2864.77 1661.21 2864.08 1662.43 2862.38 1666.19 2861.98 1666.35 2861.09 1666.67 2858.62 1664.49 2857.77 1664 2837.64 1652.52 2818.34 1641.43 2798.33 1629.95 2797.23 1629.3 2794.24 1628.21 2794.12 1627.4 2794.12 1627.36 2795.78 1624.69 2796.22 1623.88 2801.28 1615.23 2806.21 1606.57 2810.9 1598.44 2813.69 1593.59 2816.24 1588.65 2819.52 1584.2 2822.67 1579.92 2826.51 1574.9 2830.72 1572.31 2834.24 1570.13 2839.94 1568.47 2844.95 1567.42 2850.58 1566.24 2856.48 1566.16 2862.43 1566.49 2870.07 1566.85 2877.35 1569.52 2885.03 1571.62 2890.37 1573.08 2896.48 1574.66 2901.57 1576.03 2903.59 1576.6 2906.06 1576.76 2907.4 1577.45 2908.77 1578.14 2910.47 1580.77 2912.29 1582.83 2935.34 1608.55 2957.95 1633.91 2980.84 1659.11 2982.53 1660.97 2984.76 1662.67 2985.97 1664.49 2986.78 1665.7 2986.9 1666.88 2987.39 1667.52 2988.88 1669.63 2991.23 1671.61 2992.97 1673.1 2993.41 1673.47 2994.63 1673.83 2994.38 1674.72 2956.57 1664.69 2918.23 1654.01 2880.14 1643.98ZM2722.06 1601.76C2731.19 1612.72 2739.97 1624.85 2749.11 1636.74 2750.04 1637.96 2753.07 1641.52 2753.07 1641.88 2753.03 1642.32 2751.05 1643.86 2750.73 1644.23 2749.72 1645.48 2746.81 1651.3 2745.59 1651.91 2744.66 1652.36 2742.28 1652.11 2740.94 1652.4 2734.11 1653.77 2727.96 1656.32 2722.3 1659.39 2720.56 1660.32 2717.08 1663.11 2715.79 1663.11 2715.1 1663.11 2713.04 1661.66 2711.58 1661.01 2702.32 1656.85 2694.31 1653.41 2685.21 1649.36 2683.92 1648.8 2680.68 1647.74 2680.56 1647.5 2680.16 1646.81 2680.64 1644.02 2680.56 1642.85 2680.08 1634.48 2675.87 1627.32 2671.71 1622.55 2670.13 1620.73 2673.69 1621.7 2675.43 1621.62 2680.16 1621.37 2685.17 1619.88 2689.66 1618.14 2694.03 1616.4 2698.6 1614.58 2702.24 1612.56 2709.07 1608.71 2715.18 1604.1 2721.12 1601.11 2721.45 1600.95 2721.73 1601.31 2721.81 1601.35 2722.14 1601.39 2721.85 1601.51 2722.06 1601.76ZM2738.35 1664.98C2736.74 1667.73 2734.59 1672.5 2731.8 1673.59 2730.63 1674.08 2725.82 1674.68 2724.36 1674.52 2723.23 1674.4 2721 1672.86 2718.98 1671.97 2694.6 1661.13 2671.71 1651.06 2647.4 1640.26 2646.03 1639.66 2636.81 1636.18 2636.44 1635.13 2635.71 1633.02 2639.19 1630.31 2640.65 1629.06 2645.34 1624.97 2648.41 1623.64 2654.88 1622.3 2657.67 1621.74 2662.04 1620.85 2664.43 1621.37 2665.48 1621.62 2667.1 1622.99 2667.95 1623.72 2671.79 1627.2 2675.79 1634.11 2676.36 1641.43 2676.52 1643.3 2675.55 1646.25 2676.36 1647.95 2676.72 1648.72 2679.79 1649.61 2681.25 1650.29 2690.63 1654.58 2697.99 1657.78 2706.69 1661.74 2709.28 1662.91 2714.05 1666.15 2717.2 1665.95 2718.86 1665.82 2721.61 1663.92 2723.51 1662.91 2729.66 1659.64 2736.49 1656.48 2743.81 1655.23 2742.19 1658.22 2740.42 1661.46 2738.35 1664.98ZM2788.5 1628.33C2810.38 1641.27 2833.91 1654.82 2856.6 1667.97 2858.5 1669.06 2865.78 1672.3 2866.39 1673.79 2868.09 1678.16 2862.43 1684.47 2861.25 1686.17 2859.8 1688.27 2855.75 1694.87 2852.64 1695.03 2852.19 1695.03 2849.81 1693.17 2848.19 1692.24 2826.76 1679.7 2805.93 1667.93 2784.54 1655.39 2782.15 1653.97 2775.48 1650.98 2774.99 1649.32 2774.63 1648.15 2775.36 1645.44 2775.92 1643.94 2776.81 1641.64 2778.79 1638.6 2781.06 1635.33 2782.68 1632.98 2785.87 1627.8 2788.05 1628.09 2788.34 1628.13 2788.34 1628.25 2788.5 1628.33ZM2760.07 1788.58C2758.37 1790.93 2755.99 1793.27 2755.18 1795.33 2754.89 1796.02 2754.93 1799.3 2754.25 1799.78 2753.11 1800.51 2748.79 1798.65 2747.74 1798.37 2733.94 1795.09 2722.5 1792.26 2708.55 1789.75 2707.46 1789.55 2702.28 1788.94 2701.79 1788.34 2701.51 1788.01 2702.4 1786.64 2702.48 1786.48 2704.95 1781.99 2708.99 1775.27 2710.89 1772.04 2730.39 1738.35 2749.23 1705.7 2768.04 1672.66 2771.15 1667.16 2774.26 1661.46 2777.58 1656.12 2778.03 1655.39 2778.43 1655.96 2778.75 1656.12 2796.83 1665.22 2813.69 1676.99 2832.18 1686.65 2808.72 1719.54 2783.93 1755.29 2760.07 1788.58ZM2688.93 1807.47C2692.53 1803.63 2694.72 1799.82 2697.35 1795.33 2698.36 1793.64 2699.33 1790.56 2701.07 1791.13 2705.27 1792.5 2709.76 1792.79 2714.57 1793.68 2725.53 1795.78 2735.93 1798.73 2747.01 1801.36 2748.71 1801.77 2752.99 1802.53 2753.32 1803.22 2753.52 1803.67 2752.14 1807.71 2751.9 1809.05 2751.54 1811.19 2751.54 1813.78 2750.97 1815.36 2750.16 1817.5 2747.49 1819.93 2745.83 1822.11 2742.03 1827.17 2739.69 1830.85 2735.56 1835.86 2734.55 1837.12 2731.07 1841.73 2729.74 1842.17 2727.51 1842.86 2723.35 1842.17 2720.4 1842.17 2713.52 1842.17 2708.83 1842.17 2701.75 1842.17 2700.3 1842.17 2693.54 1843.02 2692.41 1842.17 2692.25 1842.05 2691.81 1839.38 2691.48 1838.21 2688.49 1828.02 2683.31 1823.85 2674.01 1820.01 2680.24 1816.89 2684.16 1812.56 2688.93 1807.47ZM2746.76 1844.56C2745.79 1845.89 2741.63 1848.36 2739.53 1848.76 2736.21 1849.41 2731.68 1848.76 2727.64 1848.76 2703.09 1848.76 2679.51 1848.76 2654.88 1848.76 2651.49 1848.76 2644 1849.21 2643.44 1848.52 2641.98 1846.74 2644.85 1841.28 2645.78 1839.66 2649.59 1833.03 2652.9 1830.6 2659.53 1826.84 2662.69 1825.06 2666.45 1822.35 2670.25 1822.64 2675.79 1823.04 2681.57 1827.93 2684 1831.25 2686.31 1834.45 2687.96 1840.23 2689.14 1843.63 2689.46 1844.6 2689.18 1844.44 2689.62 1844.8 2691.04 1845.97 2697.26 1845.49 2700.1 1845.49 2708.59 1845.49 2714.29 1845.49 2722.7 1845.49 2725.78 1845.49 2732.21 1846.14 2733.66 1845 2734.31 1844.52 2734.15 1843.22 2734.59 1842.45 2735.4 1841 2737.46 1839.62 2738.8 1838.01 2742.24 1833.96 2745.23 1829.35 2748.14 1825.43 2748.62 1824.74 2749.64 1823.2 2750 1823.81 2748.14 1829.84 2750.04 1840.11 2746.76 1844.56Z" fill-rule="evenodd"/><path d="M3133.48 1414.01C3133.16 1413.92 3131.22 1414.32 3131.02 1415.75 3130.67 1418.22 3134.64 1419.96 3136.86 1420 3139.05 1420.04 3142.78 1417.92 3140.02 1416.27 3138.62 1415.4 3137.8 1416.96 3136.63 1416.79 3133.94 1416.22 3135.15 1414.49 3133.48 1414.01Z" fill-rule="evenodd"/><path d="M3129 1413C3123.12 1413 3118.29 1408.39 3118.01 1402.53 3117.89 1399.57 3118.9 1396.78 3120.87 1394.6 3122.84 1392.42 3125.54 1391.16 3128.48 1391L3129 1391C3134.88 1391 3139.71 1395.61 3139.99 1401.47 3140.11 1404.43 3139.1 1407.22 3137.13 1409.4 3135.16 1411.58 3132.46 1412.84 3129.52 1413L3129 1413Z" fill="#1A1A1A" fill-rule="evenodd"/><path d="M3129 1391.91C3134.39 1391.91 3138.88 1396.14 3139.12 1401.59 3139.37 1407.21 3135.07 1411.93 3129.49 1412.21 3129.32 1412.21 3129.16 1412.21 3129 1412.21 3123.62 1412.21 3119.12 1407.98 3118.88 1402.53 3118.59 1396.92 3122.93 1392.2 3128.51 1391.91 3128.68 1391.91 3128.84 1391.91 3129 1391.91L3129 1391.91ZM3129 1390C3128.8 1390 3128.64 1390 3128.43 1390 3125.23 1390.16 3122.28 1391.55 3120.13 1393.91 3117.99 1396.26 3116.85 1399.36 3117.02 1402.57 3117.3 1409 3122.56 1414 3129 1414 3129.2 1414 3129.36 1414 3129.57 1414 3132.77 1413.84 3135.72 1412.45 3137.87 1410.09 3140.01 1407.74 3141.15 1404.64 3140.98 1401.43 3140.66 1395.04 3135.4 1390 3129 1390L3129 1390Z" fill-rule="evenodd"/><path d="M3139.44 1392C3139.44 1392 3144.12 1399.48 3141.52 1401.8 3138.92 1404.07 3133 1406.55 3133 1406.55L3136.24 1413 3140.16 1413 3145 1398.7 3139.44 1392Z" fill="#FFFFFF" fill-rule="evenodd"/><path d="M3154 1419C3148.12 1419 3143.29 1414.39 3143.01 1408.53 3142.73 1402.46 3147.44 1397.28 3153.48 1397L3154 1397C3159.88 1397 3164.71 1401.61 3164.99 1407.47 3165.11 1410.43 3164.1 1413.22 3162.13 1415.4 3160.16 1417.58 3157.46 1418.84 3154.52 1419L3154 1419Z" fill="#1A1A1A" fill-rule="evenodd"/><path d="M3154 1397.87C3159.38 1397.87 3163.88 1402.1 3164.12 1407.55 3164.36 1413.17 3160.07 1417.88 3154.49 1418.17 3154.32 1418.17 3154.16 1418.17 3154 1418.17 3148.61 1418.17 3144.16 1413.94 3143.88 1408.53 3143.63 1402.92 3147.93 1398.2 3153.51 1397.91 3153.68 1397.87 3153.84 1397.87 3154 1397.87L3154 1397.87ZM3154 1396C3153.8 1396 3153.64 1396 3153.43 1396 3146.83 1396.33 3141.69 1401.94 3142.01 1408.57 3142.3 1415 3147.56 1420 3154 1420 3154.2 1420 3154.36 1420 3154.57 1420 3157.77 1419.84 3160.72 1418.45 3162.87 1416.1 3165.01 1413.74 3166.15 1410.64 3165.98 1407.43 3165.7 1401.04 3160.44 1396 3154 1396L3154 1396Z" fill-rule="evenodd"/><path d="M3136.41 1413C3136.57 1413 3136.72 1413 3136.88 1413 3139.57 1411.19 3134.46 1408.92 3135.43 1406.85 3135.71 1406.28 3137.62 1406.07 3138.91 1405.37 3139.46 1405.08 3141.1 1403.8 3141.37 1403.47 3145.28 1399.02 3141.49 1388.63 3137.07 1388.05 3136.49 1387.97 3133.52 1387.8 3133.91 1389.45 3134.07 1390.11 3135.35 1389.41 3137.07 1390.89 3138.79 1392.38 3139.93 1397.08 3139.53 1399.93 3138.99 1404.01 3132.78 1403.02 3132.11 1406.11 3131.53 1408.92 3133.28 1412.01 3136.41 1413Z" fill-rule="evenodd"/><path d="M3154.8 1393.04C3153.93 1393.11 3148.16 1394.64 3149.1 1396.11 3149.94 1397.43 3155 1395.32 3155.71 1395.29 3160.98 1395.11 3161.69 1398.71 3164.58 1399 3164.74 1399 3165.69 1399.07 3165.92 1398.57 3166.2 1398.03 3165.73 1396.89 3164.42 1395.96 3160.78 1393.47 3156.74 1392.82 3154.8 1393.04Z" fill-rule="evenodd"/><path d="M2637.42 1290.96C2626.18 1290.96 2617 1281.83 2617 1270.56L2617 1177.4C2617 1166.17 2626.14 1157 2637.42 1157L2868.58 1157C2879.82 1157 2889 1166.13 2889 1177.4L2889 1270.6C2889 1281.83 2879.86 1291 2868.58 1291L2637.42 1291Z" fill="#FFFFFF" fill-rule="evenodd" fill-opacity="0.411765"/><path d="M2868.79 1158.49C2879.13 1158.49 2887.47 1166.88 2887.47 1177.18L2887.47 1270.74C2887.47 1281.08 2879.09 1289.43 2868.79 1289.43L2637.21 1289.43C2626.87 1289.43 2618.53 1281.04 2618.53 1270.74L2618.53 1177.22C2618.53 1166.88 2626.91 1158.53 2637.21 1158.53L2868.79 1158.53 2868.79 1158.49ZM2868.79 1155 2637.21 1155C2624.97 1155 2615 1164.98 2615 1177.22L2615 1270.78C2615 1283.02 2624.97 1293 2637.21 1293L2868.79 1293C2881.03 1293 2891 1283.02 2891 1270.78L2891 1177.22C2890.96 1164.94 2881.03 1155 2868.79 1155L2868.79 1155Z" fill-rule="evenodd"/><path d="M2880.26 1386 2854.74 1386C2853.77 1386 2853 1385.12 2853 1384 2853 1382.88 2853.77 1382 2854.74 1382L2880.26 1382C2881.23 1382 2882 1382.88 2882 1384 2882 1385.12 2881.23 1386 2880.26 1386Z" fill-rule="evenodd"/><path d="M2929.24 1386 2887.76 1386C2886.78 1386 2886 1385.12 2886 1384 2886 1382.88 2886.78 1382 2887.76 1382L2929.24 1382C2930.22 1382 2931 1382.88 2931 1384 2931 1385.12 2930.22 1386 2929.24 1386Z" fill-rule="evenodd"/><path d="M2988.24 1386 2939.76 1386C2938.78 1386 2938 1385.12 2938 1384 2938 1382.88 2938.78 1382 2939.76 1382L2988.24 1382C2989.22 1382 2990 1382.88 2990 1384 2990 1385.12 2989.22 1386 2988.24 1386Z" fill-rule="evenodd"/><path d="M2988.26 1402 2855.74 1402C2854.77 1402 2854 1401.34 2854 1400.5 2854 1399.66 2854.77 1399 2855.74 1399L2988.26 1399C2989.23 1399 2990 1399.66 2990 1400.5 2990 1401.34 2989.23 1402 2988.26 1402Z" fill-rule="evenodd"/><path d="M2988.26 1351 2855.74 1351C2854.77 1351 2854 1350.12 2854 1349 2854 1347.88 2854.77 1347 2855.74 1347L2988.26 1347C2989.23 1347 2990 1347.88 2990 1349 2990 1350.12 2989.23 1351 2988.26 1351Z" fill-rule="evenodd"/><path d="M2988.26 1367 2855.74 1367C2854.77 1367 2854 1366.34 2854 1365.5 2854 1364.66 2854.77 1364 2855.74 1364L2988.26 1364C2989.23 1364 2990 1364.66 2990 1365.5 2990 1366.3 2989.23 1367 2988.26 1367Z" fill-rule="evenodd"/><path d="M2917.25 1317 2856.75 1317C2855.78 1317 2855 1316.12 2855 1315 2855 1313.88 2855.78 1313 2856.75 1313L2917.25 1313C2918.22 1313 2919 1313.88 2919 1315 2919 1316.12 2918.18 1317 2917.25 1317Z" fill-rule="evenodd"/><path d="M2988.25 1317 2927.76 1317C2926.78 1317 2926 1316.12 2926 1315 2926 1313.88 2926.78 1313 2927.76 1313L2988.25 1313C2989.22 1313 2990 1313.88 2990 1315 2990 1316.12 2989.22 1317 2988.25 1317Z" fill-rule="evenodd"/><path d="M2988.26 1334 2855.74 1334C2854.77 1334 2854 1333.12 2854 1332 2854 1330.88 2854.77 1330 2855.74 1330L2988.26 1330C2989.23 1330 2990 1330.88 2990 1332 2990 1333.12 2989.23 1334 2988.26 1334Z" fill-rule="evenodd"/><path d="M2988.26 1251 2855.74 1251C2854.77 1251 2854 1250.12 2854 1249 2854 1247.88 2854.77 1247 2855.74 1247L2988.26 1247C2989.23 1247 2990 1247.88 2990 1249 2990 1250.12 2989.23 1251 2988.26 1251Z" fill-rule="evenodd"/><path d="M2988.26 1266 2855.74 1266C2854.77 1266 2854 1265.34 2854 1264.5 2854 1263.66 2854.77 1263 2855.74 1263L2988.26 1263C2989.23 1263 2990 1263.66 2990 1264.5 2990 1265.3 2989.23 1266 2988.26 1266Z" fill-rule="evenodd"/><path d="M2988.26 1282 2855.74 1282C2854.77 1282 2854 1281.34 2854 1280.5 2854 1279.66 2854.77 1279 2855.74 1279L2988.26 1279C2989.23 1279 2990 1279.66 2990 1280.5 2990 1281.34 2989.23 1282 2988.26 1282Z" fill-rule="evenodd"/><path d="M2988.26 1299 2855.74 1299C2854.77 1299 2854 1298.12 2854 1297 2854 1295.88 2854.77 1295 2855.74 1295L2988.26 1295C2989.23 1295 2990 1295.88 2990 1297 2990 1298.12 2989.23 1299 2988.26 1299Z" fill-rule="evenodd"/><path d="M3055.89 1247.51C3058.46 1247.51 3060.51 1249.61 3060.51 1252.15L3060.51 1319.85C3060.51 1322.43 3058.42 1324.49 3055.89 1324.49L3006.11 1324.49C3003.54 1324.49 3001.49 1322.39 3001.49 1319.85L3001.49 1252.15C3001.49 1249.57 3003.58 1247.51 3006.11 1247.51L3055.89 1247.51 3055.89 1247.51ZM3055.89 1244 3006.11 1244C3001.65 1244 2998 1247.67 2998 1252.15L2998 1319.85C2998 1324.33 3001.65 1328 3006.11 1328L3055.89 1328C3060.35 1328 3064 1324.33 3064 1319.85L3064 1252.15C3063.96 1247.67 3060.35 1244 3055.89 1244L3055.89 1244Z" fill-rule="evenodd"/><path d="M2834.89 1247.53C2837.46 1247.53 2839.51 1249.64 2839.51 1252.19L2839.51 1413.81C2839.51 1416.4 2837.42 1418.47 2834.89 1418.47L2741.11 1418.47C2738.54 1418.47 2736.49 1416.36 2736.49 1413.81L2736.49 1252.19C2736.49 1249.6 2738.58 1247.53 2741.11 1247.53L2834.89 1247.53 2834.89 1247.53ZM2834.89 1244 2741.11 1244C2736.65 1244 2733 1247.69 2733 1252.19L2733 1413.81C2733 1418.31 2736.65 1422 2741.11 1422L2834.89 1422C2839.35 1422 2843 1418.31 2843 1413.81L2843 1252.19C2843 1247.69 2839.35 1244 2834.89 1244L2834.89 1244Z" fill-rule="evenodd"/><path d="M2638.43 1276C2634.87 1276 2632 1273.12 2632 1269.55L2632 1201.45C2632 1197.92 2634.87 1195 2638.43 1195L2688.61 1195C2692.13 1195 2695 1197.88 2695 1201.45L2695 1269.55C2695 1273.08 2692.13 1276 2688.61 1276L2638.43 1276Z" fill="#FFFFFF" fill-rule="evenodd"/><path d="M2687.89 1196.55C2690.46 1196.55 2692.51 1198.67 2692.51 1201.25L2692.51 1269.75C2692.51 1272.37 2690.42 1274.45 2687.89 1274.45L2638.11 1274.45C2635.54 1274.45 2633.49 1272.33 2633.49 1269.75L2633.49 1201.25C2633.49 1198.63 2635.58 1196.55 2638.11 1196.55L2687.89 1196.55 2687.89 1196.55ZM2687.89 1193 2638.11 1193C2633.65 1193 2630 1196.72 2630 1201.25L2630 1269.75C2630 1274.28 2633.65 1278 2638.11 1278L2687.89 1278C2692.35 1278 2696 1274.28 2696 1269.75L2696 1201.25C2696 1196.72 2692.39 1193 2687.89 1193L2687.89 1193Z" fill-rule="evenodd"/><path d="M2739.44 1434C2728.19 1434 2719 1424.88 2719 1413.61L2719 1226.39C2719 1215.17 2728.15 1206 2739.44 1206L3054.56 1206C3065.81 1206 3075 1215.12 3075 1226.39L3075 1413.61C3075 1424.83 3065.85 1434 3054.56 1434L2739.44 1434Z" fill="#FFFFFF" fill-rule="evenodd" fill-opacity="0.501961"/><path d="M3053.85 1207.52C3064.16 1207.52 3072.48 1215.9 3072.48 1226.18L3072.48 1413.82C3072.48 1424.14 3064.12 1432.48 3053.85 1432.48L2739.15 1432.48C2728.84 1432.48 2720.52 1424.1 2720.52 1413.82L2720.52 1226.18C2720.52 1215.86 2728.88 1207.52 2739.15 1207.52L3053.85 1207.52 3053.85 1207.52ZM3053.85 1204 2739.15 1204C2726.94 1204 2717 1213.96 2717 1226.18L2717 1413.82C2717 1426.05 2726.94 1436 2739.15 1436L3053.85 1436C3066.06 1436 3076 1426.05 3076 1413.82L3076 1226.18C3076 1213.96 3066.06 1204 3053.85 1204L3053.85 1204Z" fill-rule="evenodd"/><path d="M3473.26 1854 2530.74 1854C2529.77 1854 2529 1853.12 2529 1852 2529 1850.88 2529.77 1850 2530.74 1850L3473.26 1850C3474.23 1850 3475 1850.88 3475 1852 3475 1853.12 3474.23 1854 3473.26 1854Z" fill-rule="evenodd"/><path d="M2615.5 1177.5 2889.24 1177.5" stroke="#0D0D0D" stroke-width="4.58333" stroke-miterlimit="8" fill="none" fill-rule="evenodd"/></g></svg>