<svg width="582" height="316" xmlns="http://www.w3.org/2000/svg" xmlns:xlink="http://www.w3.org/1999/xlink" overflow="hidden"><defs><clipPath id="clip0"><rect x="1795" y="1110" width="582" height="316"/></clipPath></defs><g clip-path="url(#clip0)" transform="translate(-1795 -1110)"><path d="M1814.22 1195C1820.81 1195 1826.25 1197.51 1830.55 1202.54 1834.86 1207.57 1837.01 1215.39 1837.01 1225.99L1837.01 1325.81C1837.01 1333.49 1838.84 1340.17 1842.5 1345.83 1846.16 1351.5 1851.37 1354.33 1858.15 1354.33L1867.07 1354.33 1868.03 1354.33 1963.44 1354.33C1970.76 1354.33 1976.43 1352.1 1980.46 1347.62 1984.48 1343.14 1986.5 1337.42 1986.5 1330.48 1986.5 1322.61 1983.98 1316.49 1978.95 1312.1 1973.91 1307.71 1966 1305.52 1955.2 1305.52L1927.47 1305.52C1914.11 1305.52 1903.9 1301.54 1896.86 1293.59 1889.81 1285.64 1886.29 1274.62 1886.29 1260.54 1886.29 1245.19 1890.86 1233.44 1900.01 1225.3 1909.17 1217.17 1923.81 1213.1 1943.94 1213.1L1968.65 1213.65 1984.58 1214.2C1994.28 1214.2 2001.69 1211.64 2006.81 1206.52 2007.73 1207.8 2008.19 1209.81 2008.19 1212.55 2008.19 1217.85 2006.45 1222.93 2002.97 1227.77 1999.49 1232.62 1994.46 1235.04 1987.87 1235.04L1948.06 1234.77C1935.8 1234.77 1927.01 1236.78 1921.7 1240.8 1916.4 1244.82 1913.74 1250.95 1913.74 1259.17 1913.74 1266.85 1915.8 1272.84 1919.92 1277.14 1924.04 1281.43 1930.03 1283.58 1937.9 1283.58L1959.32 1283.58C1995.74 1283.58 2013.95 1299.39 2013.95 1331.02 2013.95 1339.98 2012.58 1347.75 2009.83 1354.33L2076 1354.33 2076 1376 2012.85 1376C2004.98 1376 1998.3 1374.72 1992.81 1372.16 1987.32 1374.72 1981.1 1376 1974.14 1376L1868.03 1376 1867.07 1376 1849.91 1376C1838.01 1376 1828.36 1371.61 1820.94 1362.84 1813.53 1354.06 1809.73 1341.54 1809.55 1325.27L1809.55 1235.59C1809.55 1227.54 1808.09 1221.01 1805.16 1215.98 1802.23 1210.95 1798.84 1207.25 1795 1204.87 1795.92 1202.86 1798.16 1200.71 1801.73 1198.43 1805.3 1196.14 1809.46 1195 1814.22 1195Z" fill="#262626" fill-rule="evenodd"/><path d="M2255.22 1196C2261.8 1196 2267.25 1198.51 2271.55 1203.54 2275.85 1208.57 2278 1216.39 2278 1226.99L2278 1359.17C2278 1364.84 2277.08 1369.23 2275.25 1372.34 2273.42 1375.45 2269.67 1377 2264 1377 2258.51 1377 2254.9 1375.45 2253.16 1372.34 2251.42 1369.23 2250.55 1364.84 2250.55 1359.17L2250.55 1236.59C2250.55 1228.54 2249.08 1222.01 2246.16 1216.98 2243.23 1211.95 2239.84 1208.25 2236 1205.87 2236.92 1203.86 2239.16 1201.71 2242.73 1199.43 2246.29 1197.14 2250.46 1196 2255.22 1196Z" fill="#262626" fill-rule="evenodd"/><path d="M2353.67 1196C2360.42 1196 2365.99 1198.51 2370.4 1203.54 2374.8 1208.57 2377 1216.39 2377 1226.99L2377 1359.17C2377 1364.84 2376.06 1369.23 2374.19 1372.34 2372.32 1375.45 2368.47 1377 2362.67 1377 2357.05 1377 2353.35 1375.45 2351.57 1372.34 2349.79 1369.23 2348.9 1364.84 2348.9 1359.17L2348.9 1236.59C2348.9 1228.54 2347.4 1222.01 2344.4 1216.98 2341.4 1211.95 2337.93 1208.25 2334 1205.87 2334.94 1203.86 2337.23 1201.71 2340.89 1199.43 2344.54 1197.14 2348.8 1196 2353.67 1196Z" fill="#262626" fill-rule="evenodd"/><path d="M2101.41 1245C2105.81 1245 2109.2 1246.19 2111.59 1248.58 2113.97 1250.96 2115.16 1254.44 2115.16 1259.03L2115.16 1333.83C2115.16 1348.13 2118.01 1355.28 2123.7 1355.28L2148.87 1355.28 2149.01 1355.28 2169.24 1355.28C2179.88 1355.28 2187.08 1350.51 2190.84 1340.98 2194.6 1331.44 2196.48 1320.99 2196.48 1309.63 2196.48 1298.08 2194.92 1287.63 2191.8 1278.28 2188.68 1268.93 2182.81 1260.68 2174.19 1253.53 2178.04 1247.84 2183.73 1245 2191.25 1245 2202.44 1245 2210.7 1250.45 2216.02 1261.36 2221.34 1272.27 2224 1285.7 2224 1301.65 2224 1322.18 2219.6 1339.88 2210.79 1354.73 2201.99 1369.58 2187.68 1377 2167.86 1377L2149.01 1377 2148.87 1377 2119.57 1377C2109.11 1377 2100.4 1374.43 2093.43 1369.3 2086.27 1373.88 2078.47 1376.45 2070.03 1377L2056 1377 2056 1355.28 2070.03 1355.28C2076.27 1355.09 2082.14 1353.53 2087.65 1350.6L2087.65 1259.03C2087.65 1249.68 2092.23 1245 2101.41 1245Z" fill="#262626" fill-rule="evenodd"/><path d="M2315.2 1230C2319.25 1230 2322.56 1231.1 2325.14 1233.3 2327.71 1235.5 2329 1238.71 2329 1242.93L2329 1380.44C2329 1386.31 2327.8 1392.64 2325.41 1399.42 2323.02 1406.21 2318.65 1412.16 2312.3 1417.3 2305.96 1422.43 2297.26 1425 2286.22 1425 2278.68 1425 2272.33 1423.76 2267.18 1421.29 2262.03 1418.81 2258.26 1415.97 2255.86 1412.76 2253.47 1409.55 2252.18 1406.85 2252 1404.65 2255.13 1405.93 2258.58 1406.98 2262.35 1407.81 2266.12 1408.64 2269.57 1409.05 2272.7 1409.05 2281.9 1409.05 2289.03 1406.53 2294.09 1401.48 2299.15 1396.44 2301.68 1390.8 2301.68 1384.57L2301.4 1242.93C2301.4 1238.53 2302.69 1235.27 2305.27 1233.16 2307.84 1231.05 2311.15 1230 2315.2 1230Z" fill="#262626" fill-rule="evenodd"/><path d="M2191.27 1392C2195.84 1392 2199.77 1393.7 2203.06 1397.11 2206.35 1400.52 2208 1404.53 2208 1409.14 2208 1413.75 2206.35 1417.71 2203.06 1421.02 2199.77 1424.34 2195.84 1426 2191.27 1426 2186.52 1426 2182.45 1424.34 2179.07 1421.02 2175.69 1417.71 2174 1413.75 2174 1409.14 2174 1404.35 2175.69 1400.29 2179.07 1396.98 2182.45 1393.66 2186.52 1392 2191.27 1392Z" fill="#262626" fill-rule="evenodd"/><path d="M2081 1392C2085.52 1392 2089.32 1393.62 2092.39 1396.85 2095.46 1400.09 2097 1404.02 2097 1408.64 2097 1413.08 2095.46 1416.91 2092.39 1420.15 2089.32 1423.38 2085.52 1425 2081 1425 2076.66 1425 2072.91 1423.38 2069.75 1420.15 2066.58 1416.91 2065 1413.08 2065 1408.64 2065 1404.02 2066.58 1400.09 2069.75 1396.85 2072.91 1393.62 2076.66 1392 2081 1392Z" fill="#262626" fill-rule="evenodd"/><path d="M2122 1392C2126.52 1392 2130.32 1393.62 2133.39 1396.85 2136.46 1400.09 2138 1404.02 2138 1408.64 2138 1413.08 2136.46 1416.91 2133.39 1420.15 2130.32 1423.38 2126.52 1425 2122 1425 2117.66 1425 2113.91 1423.38 2110.75 1420.15 2107.58 1416.91 2106 1413.08 2106 1408.64 2106 1404.02 2107.58 1400.09 2110.75 1396.85 2113.91 1393.62 2117.66 1392 2122 1392Z" fill="#262626" fill-rule="evenodd"/><path d="M43.5291-2.9943C16.1868 20.4578 14.438 41.9832 36.6255 68.7659 39.7851 72.5841 43.0353 76.3477 45.9081 80.3717 66.3406 109.016 59.362 137.987 28.3133 153.774 25.7493 155.078 23.1784 156.377 19.968 158.006 20.2702 156.381 20.2259 155.403 20.623 154.658 31.162 134.917 28.7852 116.67 14.3742 99.6971 12.0306 96.9371 9.92283 93.941 8.01532 90.8644-17.8454 49.1779 7.88113 4.4147 43.5291-2.9943" fill="#68A042" fill-rule="evenodd" transform="matrix(1 0 0 -1 2114 1269)"/><path d="M23.1807-3.00363C7.70041 13.7339 7.25831 28.5406 21.0749 46.3855 23.042 48.9289 25.0612 51.4351 26.8654 54.1264 39.6974 73.2874 36.375 93.3291 18.5008 104.895 17.0258 105.852 15.5449 106.802 13.6949 107.996 13.8294 106.876 13.7793 106.207 13.9897 105.686 19.6631 91.8907 17.761 79.4333 8.80244 68.1334 7.34489 66.2964 6.0179 64.289 4.81191 62.2273-11.5792 34.2462 2.36338 2.92662 23.1807-3.00363" fill="#68A042" fill-rule="evenodd" transform="matrix(1 0 0 -1 2081 1233)"/><path d="M11.8973-2.91344C7.31831 4.66726 5.33827 12.4348 9.85957 20.5212 11.9172 24.2008 14.7045 27.5074 17.2943 30.8829 22.7868 38.0445 23.9974 45.5734 20.4407 53.0866 14.9726 45.7382 9.63538 38.3095 4.0232 31.0825-6.7288 17.2214-4.39396 6.03253 11.8973-2.91344" fill="#68A042" fill-rule="evenodd" transform="matrix(1 0 0 -1 2159 1248)"/></g></svg>