<svg xmlns="http://www.w3.org/2000/svg"><style>.st0{fill:#5f6368}</style><path class="st0" d="M242.7 1.1c-7 0-11.8 3.7-11.8 9-.1 3.9 3.5 6 6.1 7.4 2.7 1.4 3.7 2.2 3.7 3.3 0 1.9-2.2 2.7-4.3 2.7-2.3.1-4.5-.4-6.6-1.4l-.9-.3-.9 6.1c2.5 1 5.2 1.4 7.9 1.4 7.2 0 12.2-3.7 12.3-9.4.1-3.1-1.9-5.4-5.9-7.4-2.4-1.3-3.9-2.1-3.9-3.3s1.3-2.3 4.1-2.3c1.8-.1 3.7.3 5.3 1l.7.2.9-6c-2.2-.7-4.4-1-6.7-1zm-21.7.4-4.3 27.2h7L228 1.5h-7zm-10.3 0-7 18.5-.8-3.7c-1.7-4.6-5.4-9.5-9.7-11.5l6.4 23.8h7.5l11.1-27.1h-7.5zm51 0c-.8-.1-1.6.1-2.2.5-.7.4-1.2 1-1.5 1.7l-10.4 25h7.2s1.3-3.4 1.4-4.2h9c.2.9.9 4.1.9 4.1h6.7l-5.7-27.2-5.4.1zm.5 7.5.5 2.4s1.4 6.5 1.6 7.9h-5.9c.6-1.6 2.8-7.7 2.8-7.7.4-.8.7-1.7 1-2.6z"/><path class="st0" d="M197.3 1.5H186V2c8.8 2.3 14.6 7.9 17.1 14.4l-2.5-12.5c-.5-1.8-1.6-2.2-3.3-2.4zM168 24.1l-.4-.5v.5-.5l.4.5z"/><path class="st0" d="M140.3 15.5c0-2.2.5-4.3 1.5-6.2.9-2 2.3-3.7 3.9-5.1-2.4-2-5.4-3.1-8.5-3.2-3.7 0-7.3 1.5-9.9 4.1-2.6 2.6-4.1 6.2-4.1 9.9s1.5 7.3 4.1 9.9c2.6 2.6 6.2 4.1 9.9 4.1 1.6.1 3.1-.2 4.6-.7 1.5-.5 2.8-1.4 3.9-2.4-3.1-1.8-5.4-5.8-5.4-10.4zM168.3 15.4c0 3.7-1.5 7.2-4.1 9.8-2.6 2.6-6.1 4.1-9.8 4.1-1.6.1-3.1-.2-4.6-.7-1.5-.5-2.8-1.4-3.9-2.4 1.7-1.2 3-2.9 4-4.7.9-1.9 1.4-3.9 1.4-6s-.5-4.3-1.5-6.2c-.9-1.9-2.3-3.7-3.9-5 2.7-1.8 5.4-3.1 8.5-3.1 3.7.2 7.2 1.8 9.8 4.4 2.6 2.5 4 6.1 4.1 9.8z"/><g><path class="st0" d="M321.2 17h-33v11h33V17zM321.2 2h-33v11h33V2zM354.1 25.8h-.1c-.3.1-.7.1-1.1.1-.9 0-1.9-.4-1.9-2.5 0-1.1.2-2.5 1.8-2.5.4 0 .8.1 1.2.2h.1v4.7zm.3-10.4h-.3v3.8l-.2-.1h-.1c-.5-.2-1-.2-1.5-.3-3.2 0-3.9 2.4-3.9 4.5-.1.6 0 1.2.2 1.7.2.6.5 1.1.9 1.5.4.4.9.7 1.5.9.6.2 1.1.3 1.7.2 1 0 1.9-.1 2.9-.4.2 0 .3-.1.5-.1s.3-.2.4-.3c.1-.1.2-.3.2-.4V15l-2.3.4M363.7 25.8h-.1l-.5.1c-.4.1-.8.2-1.2.2-.8 0-1.2-.4-1.2-1 0-.4.2-1.1 1.4-1.1h1.6v1.8zm-1.1-6.9c-1.1 0-2.2.2-3.3.6l-.8.2.3 1.9.8-.3c.9-.3 1.8-.4 2.7-.4.3 0 1.4 0 1.4 1.2v.5h-1.5c-2.7 0-4 .9-4 2.7 0 1.6 1.2 2.6 3.1 2.6.7 0 1.5-.1 2.2-.3H363.8l2.4.4v-6.1c0-2-1.2-3-3.6-3M344.7 25.8h-.1l-.5.1c-.4.1-.8.2-1.2.2-.8 0-1.2-.4-1.2-1 0-.4.2-1.1 1.4-1.1h1.6v1.8zm-1.2-6.9c-1.1 0-2.2.2-3.3.6l-.8.2.3 1.9.8-.3c.9-.3 1.8-.4 2.7-.4.4 0 1.4 0 1.4 1.2v.5h-1.5c-2.8 0-4 .9-4 2.7 0 1.6 1.2 2.6 3.1 2.6.7 0 1.5-.1 2.2-.3H344.7l2.4.4v-6.1c.1-2-1.1-3-3.6-3M334.4 18.9c-.9 0-1.8.2-2.7.6h-.1l-.1-.1c-.7-.4-1.6-.6-2.4-.6-.9 0-1.9.1-2.8.4-.8.3-1.2.7-1.2 1.4v7h2.6v-6.5h.1c.4-.1.8-.2 1.2-.2.8 0 1.1.4 1.1 1.2v5.5h2.6V22c0-.2 0-.4-.1-.6l-.1-.2.2-.1c.4-.2.8-.3 1.3-.3h.5c.2 0 .3.1.4.3.1.1.2.3.3.4.1.2.1.3 0 .5v5.5h2.5v-5.8c0-1.8-1.1-2.8-3.3-2.8M361.8 9.2c-.5 0-1-.1-1.5-.2h-.2V4.7l-.1-.2.2-.1h.1l.2-.1c.4-.1.9-.2 1.4-.2 1.6 0 1.8 1.4 1.8 2.5-.1 2.2-1.1 2.6-1.9 2.6zm-.1-7.2c-1.5 0-3 .4-3.6 1.2-.3.4-.5.9-.5 1.5v3.9c0 .2 0 .3-.1.5l-.1.2h-4.8V6.5c0-2.9-1.8-4.4-4.2-4.4H346c-.1.7-.2 1.2-.3 1.9h2.4c1.2 0 1.9 1.1 1.9 2.7v2.7l-.2-.1c-.2 0-.4-.1-.6-.1h-4c-.1.5-.2 1.2-.3 1.9h12.6l1.4-.2c.8.3 1.7.5 2.6.5.6 0 1.2-.1 1.8-.3.6-.2 1.1-.6 1.5-1 .4-.4.8-1 1-1.5.2-.6.3-1.2.2-1.8 0-.6 0-1.2-.2-1.8-.2-.6-.5-1.1-.9-1.5-.4-.4-.9-.8-1.5-1s-1.1-.5-1.7-.5M339.7 12.2h.1c2.7 0 4-.9 4-3.1 0-.4-.1-.8-.2-1.2-.2-.4-.4-.7-.7-1-.3-.3-.6-.5-1-.6-.4-.1-.8-.2-1.2-.1h-2.5c-.2 0-.3 0-.5-.1s-.3-.1-.4-.3c-.1-.1-.2-.3-.3-.4 0 0-.1-.2 0-.4 0-.5.2-1.1 1.4-1.1h5.6c.1-.7.2-1.2.3-1.9h-5.8c-2.7 0-4 1.1-4 3s1.2 2.8 3.1 2.8h2.5c.3 0 .6.1.8.4.2.2.4.5.4.8 0 .2 0 .4-.1.5-.1.2-.2.3-.3.4-.1.1-.3.2-.5.3-.2 0-.4.1-.5 0H330c-1.2 0-2.1-.7-2.1-2.3V6.8c0-1.7.7-2.8 2.1-2.8h2.4c.1-.7.2-1.2.3-1.9h-3.3c-2.4 0-4.1 1.6-4.2 4.5V8c-.1.6 0 1.1.2 1.7.2.5.5 1 .9 1.4.4.4.9.7 1.4.9.5.2 1.1.3 1.7.2h10.3z"/></g><g><path class="st0" d="M14 1.5H6c-.5 0-1 .4-1.1.9L1.6 23c-.1.4.2.8.7.8h3.8c.5 0 1-.4 1.1-.9l.9-5.5c.1-.5.6-.9 1.1-.9h2.5c5.3 0 8.3-2.6 9.1-7.6.4-2.2 0-4-1-5.2-1.1-1.5-3.2-2.2-5.8-2.2zm.9 7.5c-.4 2.9-2.6 2.9-4.8 2.9H8.9l.8-5.4c.1-.3.4-.5.7-.5h.6c1.4 0 2.8 0 3.5.8.4.5.5 1.2.4 2.2zM37.9 8.9h-3.8c-.3 0-.6.2-.7.6l-.2 1.1-.2-.4c-.8-1.2-2.7-1.6-4.5-1.6-4.2 0-7.9 3.2-8.6 7.7-.4 2.2.2 4.4 1.4 5.9 1.2 1.4 2.8 2 4.8 2 3.4 0 5.3-2.2 5.3-2.2l-.1 1c-.1.4.2.8.7.8h3.5c.5 0 1-.4 1.1-.9l2.1-13.1c-.1-.5-.4-.9-.8-.9zm-5.3 7.5c-.4 2.2-2.1 3.7-4.3 3.7-1.1 0-2-.4-2.6-1-.6-.7-.8-1.6-.6-2.7.3-2.2 2.1-3.7 4.3-3.7 1.1 0 2 .4 2.6 1 .5.7.7 1.7.6 2.7zM58.3 8.9h-3.9c-.4 0-.7.2-.9.5l-5.3 7.8L46 9.7c-.1-.5-.6-.8-1.1-.8h-3.8c-.5 0-.8.4-.6.9l4.2 12.5-4 5.6c-.3.4 0 1.1.5 1.1H45c.4 0 .7-.2.9-.5l13-18.5c.3-.4 0-1.1-.6-1.1zM71.1 1.5h-8c-.5 0-1 .4-1.1.9L58.7 23c-.1.4.2.8.7.8h4.1c.4 0 .7-.3.8-.7l.9-5.8c.1-.5.6-.9 1.1-.9h2.5c5.3 0 8.3-2.6 9.1-7.6.4-2.2 0-4-1-5.2-1.1-1.4-3.1-2.1-5.8-2.1zM72 9c-.4 2.9-2.6 2.9-4.8 2.9H66l.8-5.4c.2-.3.4-.5.8-.5h.6c1.4 0 2.8 0 3.5.8.4.5.5 1.2.3 2.2zM95 8.9h-3.8c-.3 0-.6.2-.7.6l-.2 1.1-.3-.4c-.8-1.2-2.7-1.6-4.5-1.6-4.2 0-7.9 3.2-8.6 7.7-.4 2.2.2 4.4 1.4 5.9 1.2 1.4 2.8 2 4.8 2 3.4 0 5.3-2.2 5.3-2.2v1c-.1.4.2.8.7.8h3.5c.5 0 1-.4 1.1-.9l2.1-13.1c0-.5-.4-.9-.8-.9zm-5.3 7.5c-.4 2.2-2.1 3.7-4.3 3.7-1.1 0-2-.4-2.6-1-.6-.7-.8-1.6-.6-2.7.3-2.2 2.1-3.7 4.3-3.7 1.1 0 2 .4 2.6 1 .5.7.8 1.7.6 2.7zM99.6 2.1 96.3 23c-.1.4.2.8.7.8h3.3c.5 0 1-.4 1.1-.9l3.2-20.5c.1-.4-.2-.8-.7-.8h-3.7c-.3-.1-.6.2-.6.5z"/></g></svg>